<?xml version="1.0" encoding="utf-8"?>
<!-- Generator: Adobe Illustrator 23.0.3, SVG Export Plug-In . SVG Version: 6.00 Build 0)  -->
<svg version="1.1" id="technicalSkills" xmlns="http://www.w3.org/2000/svg" xmlns:xlink="http://www.w3.org/1999/xlink" x="0px"
	 y="0px" viewBox="0 0 280 216" style="enable-background:new 0 0 280 216;" xml:space="preserve">
<title>projects</title>
<path d="M77,145.9c0,5.4-0.1,10.2,0.1,14.9c0.1,1.8,0.5,3.6,1.2,5.3c6.1,15.1,15,28.1,28.1,38c1.9,1.4,3.1,1.3,4.9-0.1
	c13.1-9.9,22.1-22.9,28-38.1c2.1-5.4,2-11.2,1.5-16.9c-0.1-0.9-0.2-1.8-0.3-2.9c6.6,2,13.1,3.8,19.4,6c8.1,2.8,16.3,5.5,24.1,9
	c4.2,1.9,7.8,5.2,11.6,8c1.9,1.4,15.4,41,13.6,42.9c-40.7,1-157.4,0-197.5,0.6c-1.7-1.8,8.6-41.8,10.2-43.4
	c4.7-4.6,10.2-8.1,16.3-10.2C50.8,154.5,63.7,150.4,77,145.9z"/>
<path d="M158.3,69.6c3.6,0.6,5.7,2.7,6,7.3c0.6,7.5-1.8,14.2-6.8,19.8c-1,1.1-2,2.4-2.6,3.8c-4.2,8.8-9,17.3-15.6,24.6
	c-8.4,9.3-18.6,14.9-31.5,14.6c-10.7-0.3-19.6-4.7-27.2-12.1c-8-7.9-13.5-17.5-18.2-27.6c-0.6-1-1.4-2.1-2.3-3
	c-5.5-6.3-8.1-13.4-6.6-21.7c0.6-3.3,2.4-5.6,6.2-5.6c-0.5-5.1-1.1-10.1-1.4-15c-0.5-6.8,0-13.6,2-20.1C64,22.3,72.6,14.2,84.1,9.7
	c19.9-7.9,39.5-7.1,57.9,4.7c10.7,6.9,16.3,17.3,16.9,29.9C159.2,52.6,158.5,61,158.3,69.6z"/>
<path d="M191.5,190.3c-41.9,0-76-34.1-76-76s34.1-76,76-76s76,34.1,76,76S233.4,190.3,191.5,190.3z M191.5,48.1
	c-36.4,0-66.1,29.7-66.1,66.1s29.6,66.1,66.1,66.1s66.1-29.7,66.1-66.1S227.9,48.1,191.5,48.1z"/>
<g>
	<path d="M197.3,95.9l1,0.7c-0.4,4.7-0.6,10.8-0.6,18.1V127c0,0.8,0.1,3.4,0.2,7.7c0.1,4.3,0.3,6.9,0.5,7.6c0.2,0.7,0.4,1.2,0.7,1.6
		s0.7,0.5,1.2,0.6s2.4,0.2,5.9,0.5l0.5,0.4v2.3l-0.4,0.5c-4.5-0.3-8.9-0.4-13.1-0.4c-4.2,0-8.5,0.1-13,0.4l-0.5-0.5v-2.3l0.5-0.4
		c3.5-0.2,5.5-0.4,5.9-0.5c0.5-0.1,0.9-0.3,1.2-0.7c0.3-0.3,0.6-0.9,0.7-1.6c0.1-0.7,0.3-3,0.4-7s0.2-7,0.2-9v-10.7
		c0-1.4-0.1-3.4-0.2-5.9c-0.1-2.5-0.3-4-0.4-4.6c-0.1-0.6-0.4-1-0.8-1.3c-0.5-0.3-1.4-0.4-2.8-0.4l-4.6-0.1l-0.5-0.4v-2.3l0.4-0.4
		C186.8,99.1,192.6,97.8,197.3,95.9z M192.7,71.6c1.7,0,3.1,0.6,4.3,1.8s1.8,2.6,1.8,4.3c0,1.7-0.6,3.1-1.8,4.3s-2.6,1.8-4.3,1.8
		s-3.1-0.6-4.3-1.8c-1.2-1.2-1.8-2.6-1.8-4.3c0-1.7,0.6-3.1,1.8-4.3C189.6,72.2,191.1,71.6,192.7,71.6z"/>
</g>
</svg>
