<svg id="arrow" xmlns="http://www.w3.org/2000/svg" viewBox="0 0 184.74 303.04">
  <title>arrow</title>
  <path d="M73.12,151.12c12.73,12.23,24.28,23,35.47,34.15q35,34.9,69.77,70.12c8.31,8.37,8.5,18.45.6,27.07q-5.4,5.9-10.93,11.68c-11.09,11.59-21.4,11.89-32.62.69C115.49,275,95.73,254.92,75.86,235Q42,201,8.05,167.17c-10.82-10.79-10.66-21.35,0-32Q50,93.38,91.67,51.3c14.21-14.28,28.79-28.22,42.44-43,11.53-12.48,26.64-9.64,34.61.41,2.89,3.64,6.35,6.82,9.53,10.23,8.81,9.44,8.49,19.79-.77,29q-26,25.93-51.9,51.94c-15,15.1-30,30.28-45,45.36C78.78,147,76.62,148.38,73.12,151.12Z" fill="#d26227"/>
</svg>
