<?xml version="1.0" encoding="utf-8"?>
<!-- Generator: Adobe Illustrator 23.0.3, SVG Export Plug-In . SVG Version: 6.00 Build 0)  -->
<svg version="1.1" id="Layer_1" xmlns="http://www.w3.org/2000/svg" xmlns:xlink="http://www.w3.org/1999/xlink" x="0px" y="0px"
	 viewBox="0 0 72 72" style="enable-background:new 0 0 72 72;" xml:space="preserve">
<g>
	<path d="M29,67.9c-4.8-1-9-3.3-12.8-6.4c-6-4.8-10.4-10.8-12-18.5c-0.3-1.2-0.5-7.3-0.4-7.4c0.4-2.5,0.6-5,1.2-7.4
		C8.9,12.9,19.6,5.3,34.5,3.8C43,3,50.3,6.2,56.6,11.7c5.5,4.8,9.5,10.5,11,17.8c0.3,1.3,0.5,2.7,0.7,4c0,1.7-0.3,6-0.4,6.5
		c-1.7,15.6-13.4,26.4-29,28.1C36.5,68.6,29,68.2,29,67.9z M63.8,22.2c0-0.1,0-0.2,0-0.3c-9.9,0-19.9,0-29.8,0c-0.3,0-0.7,0.1-1,0.2
		c-5,1.1-8.4,4.3-10.7,8.9c-4-3.9-7.9-7.8-11.8-11.6c-0.1,0.1-0.2,0.2-0.3,0.3c1.6,2.7,3.2,5.4,4.7,8.1c2.7,4.9,5.4,9.9,8.1,14.9
		c2.7,5,6.9,7.7,12.6,7.9c0.7,0,1.4,0,2.3,0c-1.3,5.5-2.6,10.8-3.8,16.2c0.6-0.3,0.9-0.7,1.2-1.1c4.3-7.4,8.6-14.9,13-22.3
		c2.2-3.8,2.5-7.7,1.2-11.8c-0.5-1.5-1.3-2.9-2.1-4.4c2.8-0.8,5.5-1.6,8.3-2.4C58.3,23.9,61,23,63.8,22.2z"/>
	<path d="M47.7,36c0.3,6.6-4.9,12-11.6,12.3c-6.3,0.3-11.9-4.9-12.2-11.3c-0.3-6.9,4.7-12.4,11.5-12.7C41.9,24,47.4,29.2,47.7,36z"
		/>
</g>
</svg>
