<?xml version="1.0" encoding="utf-8"?>
<!-- Generator: Adobe Illustrator 23.0.3, SVG Export Plug-In . SVG Version: 6.00 Build 0)  -->
<svg version="1.1" id="technicalSkills" xmlns="http://www.w3.org/2000/svg" xmlns:xlink="http://www.w3.org/1999/xlink" x="0px"
	 y="0px" viewBox="0 0 280 216" style="enable-background:new 0 0 280 216;" xml:space="preserve">
<style type="text/css">
	.st0{fill:#FFFFFF;}
</style>
<title>projects</title>
<g>
	<path class="st0" d="M11.6,166.3c-0.3-2.1-0.9-4.2-0.9-6.3c0.7-19.3,5.6-37.7,12.3-55.7C36,69.8,58.4,42.6,87.4,20.6
		c2.5-1.9,5.1-3.7,7.9-5.2c1.7-0.9,3.8-1.6,5.8-1.6c8.8-0.1,17.4,0.9,25.3,4.9c3.9,2,7.4,4.9,11,7.6c2.1,1.6,2.9,4.1,2.3,6.6
		c-1,4-2,8-3.8,11.6c-4.9,9.6-12.2,17.5-19.7,25c-3.9,3.9-10.7,4.1-16.3,1.2c-4.5-2.3-7.9-5.9-10.7-9.9c-1.2-1.6-2.4-1.9-4.1-1.4
		c-6.1,1.6-10.8,5.2-14.9,9.8c-6.8,7.5-12.2,16-17,24.9c-3.8,7.1-7.4,14.4-9.2,22.4c-1,4.4-1.1,8.9,0.1,13.3
		c0.4,1.7,1.2,2.6,3.1,2.8c5.2,0.6,10,2.2,14.4,5.1c5.7,3.7,8.1,9,6.2,15.5c-3.1,10.5-6.4,21-13,30c-1.8,2.5-4.2,4.7-6.5,6.8
		c-2.2,2-4.9,2.3-7.9,1.5c-7.3-2-13.4-6.1-18.3-11.7C18.4,175.6,15.2,171,11.6,166.3z"/>
	<path class="st0" d="M134.3,142.4c0,3.6,0,7.1,0,10.7c0,1.3,0.1,2.7,0.6,3.9c0.9,2.8,3.7,3.5,5.9,1.6c0.8-0.7,1.6-1.7,2.1-2.8
		c3.4-7.5,4.1-22.7-4-31.7c-5.1-5.7-11.6-8-19-8.4c-14.6-0.8-26.4,6.1-31.7,18.6c-2.5,6-3.3,12.3-2.8,18.8c0.1,1.4,0.3,2.8,0.5,4.2
		c2.2,12.9,11.2,20.7,24.6,21.4c7.9,0.4,15.5-0.8,23-3.4c2.8-1,3-0.8,2.9,2.2c-0.2,6.7,1.7,6.4-6.6,8.7c-10.6,2.9-21.4,3.2-31.9-0.2
		c-12.2-3.9-20-12.1-22.7-24.7c-2-9.7-1.6-19.3,2.2-28.6c6.7-16.1,19.2-24.5,36.3-26c7.3-0.7,14.6,0,21.5,3
		c12.2,5.3,18.8,14.8,20.5,27.8c0.7,5.7,0.6,11.5-1.4,17c-1,2.8-2.4,5.7-4.2,8.1c-5.8,7.6-15.6,8.5-22.7,2.1
		c-1.3-1.1-1.9-0.2-2.7,0.4c-5.1,4.3-11,5.3-17.3,3.8c-7.5-1.7-12.1-6.6-13.6-14.2c-3.3-16.8,7.3-29.6,24.5-29.1
		c4.7,0.1,9.3,1.2,14,1.8c2.3,0.3,3.2,1.5,3,3.9c-0.3,3.7-0.4,7.4-0.6,11.2C134.6,142.4,134.5,142.4,134.3,142.4z M123.9,141.1
		c-0.1,0-0.2,0-0.2-0.1c0-1.4,0.1-2.8-0.1-4.2c-0.1-0.7-0.7-1.8-1.3-2c-6.6-2.5-14.8,1.3-16.6,8.1c-0.9,3.2-0.9,6.7-0.5,10
		c0.6,4.7,3.8,6.9,8.6,6.8c3.9-0.1,6.8-2,7.9-6C122.8,149.6,123.2,145.3,123.9,141.1z"/>
	<path class="st0" d="M113.2,95.1c0.7-0.9,1.2-1.7,1.8-2.3c16.1-19.3,32.2-38.6,48.2-57.9c4.4-5.2,8.4-5.6,13.6-1.3
		c31,25.8,62,51.7,93,77.6c5,4.1,5.4,8.3,1.2,13.3c-19.3,23.2-38.6,46.4-58,69.5c-3.9,4.7-8.2,5-13,1.1
		c-12.4-10.3-24.8-20.7-37.3-31c-2.1-1.7-2.9-3.3-1.5-5.7c0.3-0.5,0.4-1.1,0.6-1.6c0.9-2.4,1.3-2.5,3.3-0.9
		c9.8,8.1,19.5,16.2,29.2,24.4c3,2.5,6,5,9,7.5c2.7,2.3,2.8,2.3,5.1-0.4c12.5-15,24.9-29.9,37.4-44.9c6.1-7.3,12-14.6,18.2-21.7
		c1.6-1.8,1.4-2.9-0.4-4.4C233.5,91,203.2,65.8,173,40.5c-1.9-1.6-3-1.5-4.6,0.4C154.2,58,139.9,75,125.7,92.1
		C122.1,96.5,119.3,97.2,113.2,95.1z"/>
	<path class="st0" d="M256.7,121.5c-0.9,2-2.6,2.3-4.5,2.4c-9.4,0.3-18.9,0.5-28.3,0.8c-12.9,0.4-25.8,0.6-38.8,1.1
		c-2.4,0.1-3.4-0.6-3.8-3c-4.5-22.7-9.1-45.3-13.6-68c0-0.2-0.1-0.5-0.1-0.7c-0.5-3,0.5-5.1,2.7-5.6c2.3-0.5,4.3,1.1,4.9,4.1
		c3.9,19.2,7.7,38.5,11.6,57.8c0.3,1.5,0.7,2.9,0.9,4.4c0.2,2.5,1.5,3.2,4,3.1c19.4-0.6,38.8-1.1,58.1-1.7c1.3,0,2.7-0.1,4,0
		C256.5,116.6,257.8,119.1,256.7,121.5z"/>
	<path class="st0" d="M205,135.1c2,0.9,2.3,2.7,2.4,4.6c0.7,11.5,1.5,23,2.2,34.5c0.1,1.6,0.2,3.1,0.3,4.7c0.1,2.8-1.3,4.6-3.6,4.8
		c-2.3,0.1-3.9-1.4-4.1-4.3c-0.8-11.4-1.5-22.8-2.2-34.2c-0.1-2.1-0.4-4.1-0.3-6.2C199.8,135.6,202.4,133.8,205,135.1z"/>
	<path class="st0" d="M143.3,103.6c1.6-0.2,2.7-0.4,3.8-0.5c5-0.5,10-1.1,15.1-1.6c3-0.3,4.9,1.1,5.1,3.4c0.2,2.4-1.4,4-4.4,4.4
		c-1.3,0.2-2.7,0.1-3.9,0.5C152.5,111.9,148.2,108,143.3,103.6z"/>
</g>
</svg>
