<?xml version="1.0" encoding="utf-8"?>
<!-- Generator: Adobe Illustrator 23.0.3, SVG Export Plug-In . SVG Version: 6.00 Build 0)  -->
<svg version="1.1" id="technicalSkills" xmlns="http://www.w3.org/2000/svg" xmlns:xlink="http://www.w3.org/1999/xlink" x="0px"
	 y="0px" viewBox="0 0 280 216" style="enable-background:new 0 0 280 216;" xml:space="preserve">
<style type="text/css">
	.st0{clip-path:url(#SVGID_2_);}
</style>
<title>projects</title>
<path d="M88.8,202.4c-1.9-1-4-1.7-5.7-2.9c-15.4-11.7-27.7-26.2-38.5-42C23.8,127.1,14.4,93.1,13.1,56.7c-0.1-3.1-0.1-6.3,0.3-9.5
	c0.2-1.9,0.9-4,2-5.7c5-7.3,10.7-13.7,18.5-17.9c3.9-2,8.3-3.2,12.5-4.6c2.5-0.8,5,0,6.7,1.9c2.7,3.1,5.4,6.2,7.3,9.8
	c5,9.5,7.3,20,9.2,30.5c1,5.4-2.8,11.1-8.4,14c-4.5,2.4-9.4,3.1-14.2,3.1c-2,0.1-2.9,0.9-3.5,2.6c-2.2,5.9-1.9,11.8-0.5,17.8
	c2.2,9.9,6.1,19.2,10.6,28.2c3.6,7.2,7.5,14.3,13.1,20.4c3,3.3,6.7,6,10.9,7.6c1.6,0.6,2.8,0.5,4.1-0.9c3.5-3.9,7.5-6.9,12.4-8.9
	c6.3-2.5,12-1.5,16.3,3.8c6.8,8.6,13.5,17.3,17.1,27.9c1,2.9,1.4,6.1,1.8,9.2c0.4,2.9-0.9,5.3-3.3,7.3c-5.8,4.8-12.7,7.5-20.1,8.3
	C100.4,202.2,94.8,202.2,88.8,202.4z"/>
<path d="M153.6,58.9c0,3.6,0,7.1,0,10.7c0,1.3,0.1,2.7,0.6,3.9c0.9,2.8,3.7,3.5,5.9,1.6c0.8-0.7,1.6-1.7,2.1-2.8
	c3.4-7.5,4.1-22.7-4-31.7c-5.1-5.7-11.6-8-19-8.4c-14.6-0.8-26.4,6.1-31.7,18.6c-2.5,6-3.3,12.3-2.8,18.8c0.1,1.4,0.3,2.8,0.5,4.2
	c2.2,12.9,11.2,20.7,24.6,21.4c7.9,0.4,15.5-0.8,23-3.4c2.8-1,3-0.8,2.9,2.2c-0.2,6.7,1.7,6.4-6.6,8.7c-10.6,2.9-21.4,3.2-31.9-0.2
	c-12.2-3.9-20-12.1-22.7-24.7c-2-9.7-1.6-19.3,2.2-28.6c6.7-16.1,19.2-24.5,36.3-26c7.3-0.7,14.6,0,21.5,3
	C166.7,31.5,173.3,41,175,54c0.7,5.7,0.6,11.5-1.4,17c-1,2.8-2.4,5.7-4.2,8.1c-5.8,7.6-15.6,8.5-22.7,2.1c-1.3-1.1-1.9-0.2-2.7,0.4
	c-5.1,4.3-11,5.3-17.3,3.8c-7.5-1.7-12.1-6.6-13.6-14.2c-3.3-16.8,7.3-29.6,24.5-29.1c4.7,0.1,9.3,1.2,14,1.8c2.3,0.3,3.2,1.5,3,3.9
	c-0.3,3.7-0.4,7.4-0.6,11.2C153.9,58.9,153.8,58.9,153.6,58.9z M143.2,57.6c-0.1,0-0.2,0-0.2-0.1c0-1.4,0.1-2.8-0.1-4.2
	c-0.1-0.7-0.7-1.8-1.3-2c-6.6-2.5-14.8,1.3-16.6,8.1c-0.9,3.2-0.9,6.7-0.5,10c0.6,4.7,3.8,6.9,8.6,6.8c3.9-0.1,6.8-2,7.9-6
	C142.1,66.1,142.5,61.8,143.2,57.6z"/>
<g>
	<defs>
		<path id="SVGID_1_" d="M134.5,119c-29.6,0-53.7-24-53.7-53.7s24-53.7,53.7-53.7s53.7,24,53.7,53.7S164.2,119,134.5,119z
			 M309.3,66.3c0-94.7-76.8-171.5-171.5-171.5S-33.8-28.4-33.8,66.3S43,237.8,137.7,237.8S309.3,161,309.3,66.3z"/>
	</defs>
	<clipPath id="SVGID_2_">
		<use xlink:href="#SVGID_1_"  style="overflow:visible;"/>
	</clipPath>
	<path class="st0" d="M229.1,137.9c-13.3,16.4-26.6,32.8-40,49.2c-3.2,3.9-3.6,4-7.4,0.9c-21.2-17.2-42.4-34.4-63.7-51.7
		c-3.7-3-3.7-3.6-0.8-7.2c26.8-33,53.5-66,80.3-99c3.3-4.1,3.7-4.1,7.6-0.9c21.2,17.2,42.4,34.4,63.7,51.7c3.5,2.8,3.6,3.5,0.8,6.9
		C256.2,104.6,242.6,121.2,229.1,137.9z M201.1,114.8c-0.7-25.8-1.4-51.2-2-77.3c-24.8,30.6-49.2,60.6-74,91.2
		C150.8,124,175.7,119.4,201.1,114.8z M188.2,179.2c24.4-30.1,48.8-60.2,73-89.9c-18.3,1.9-36.7,3.8-55.2,5.7c0-0.2,0,0,0,0.1
		c0.2,6.4,0.3,12.8,0.5,19.2c0.1,5,0.1,5-4.9,5.9c-6.5,1.2-12.9,2.4-19,3.5C184.5,142.4,186.4,160.7,188.2,179.2z M124.5,134.3
		c19.5,15.9,38.6,31.3,57.1,46.4c-1.9-18.4-3.8-37.1-5.7-55.8C159.2,127.9,142.1,131.1,124.5,134.3z M204.4,35.5
		c0.5,18.2,0.9,35.6,1.4,51.9c18.8-1.9,37.5-3.8,55.6-5.7C243,66.9,224,51.5,204.4,35.5z"/>
</g>
</svg>
