<?xml version="1.0" encoding="utf-8"?>
<!-- Generator: Adobe Illustrator 23.0.3, SVG Export Plug-In . SVG Version: 6.00 Build 0)  -->
<svg version="1.1" id="Layer_1" xmlns="http://www.w3.org/2000/svg" xmlns:xlink="http://www.w3.org/1999/xlink" x="0px" y="0px"
	 viewBox="0 0 72 72" style="enable-background:new 0 0 72 72;" xml:space="preserve">
<g>
	<path d="M35.6,70.2c-0.8-0.2-1.6-0.5-2.5-0.7c-7.3-2-14.6-4.1-21.9-6.1C11.1,63.4,11,63.3,11,63c-0.2-2.1-0.4-4.3-0.6-6.4
		c-0.2-1.9-0.3-3.7-0.5-5.6c-0.2-2.1-0.4-4.2-0.6-6.3c-0.2-1.8-0.3-3.7-0.5-5.5c-0.2-2.1-0.4-4.2-0.6-6.3c-0.2-1.8-0.3-3.7-0.5-5.5
		c-0.2-2.1-0.4-4.2-0.6-6.3c-0.2-1.8-0.3-3.7-0.5-5.5c-0.2-2.1-0.4-4.3-0.6-6.4C6,7.3,5.9,5.5,5.7,3.7C5.6,3,5.6,2.2,5.5,1.5
		c20.2,0,40.4,0,60.6,0C66,2.1,66,2.7,65.9,3.4c-0.2,1.9-0.3,3.8-0.5,5.7c-0.2,2.1-0.4,4.2-0.6,6.3c-0.2,1.8-0.3,3.6-0.5,5.4
		c-0.2,2.1-0.4,4.3-0.6,6.4c-0.2,1.8-0.3,3.7-0.5,5.5c-0.2,2.1-0.4,4.2-0.6,6.3c-0.2,1.8-0.3,3.7-0.5,5.5c-0.2,2.1-0.4,4.2-0.6,6.3
		c-0.2,2.1-0.4,4.2-0.6,6.2c-0.2,2-0.4,4-0.5,6c0,0.1-0.2,0.2-0.3,0.3c-2,0.6-4,1.1-6,1.7c-6.1,1.7-12.1,3.4-18.2,5
		c-0.1,0-0.2,0.1-0.3,0.1C35.8,70.2,35.7,70.2,35.6,70.2z M35.8,29.4c-0.1,0-0.3,0-0.4,0c-5.6,0-11.2,0-16.8,0c-0.1,0-0.3,0-0.4,0
		c0.2,2.6,0.5,5.1,0.7,7.6c0.2,0,0.3,0,0.4,0c5.4,0,10.8,0,16.2,0c0.1,0,0.3,0,0.4,0c0,4,0,8,0,12.1c-0.1,0-0.2,0-0.3,0
		c-2.7-0.7-5.3-1.4-8-2.2c-0.1,0-0.2-0.1-0.2-0.2c-0.1-1.2-0.2-2.5-0.3-3.7c-0.1-0.7-0.1-1.4-0.2-2.2c-2.6,0-5.1,0-7.6,0
		c0.1,0.7,0.1,1.3,0.2,1.9c0.2,1.9,0.3,3.7,0.5,5.6c0.1,1.3,0.2,2.7,0.4,4c0,0.2,0.1,0.3,0.4,0.4c3.8,1,7.6,2.1,11.4,3.2
		c1.3,0.4,2.6,0.7,3.9,1.1c0,2.6,0,5.2,0,7.8c0.9-0.2,1.7-0.5,2.6-0.7c2.9-0.8,5.7-1.6,8.6-2.4c2.9-0.8,5.7-1.6,8.6-2.4
		c0.1,0,0.2-0.2,0.2-0.2c0.1-0.5,0.1-1,0.2-1.5c0.1-0.9,0.2-1.8,0.3-2.7c0.1-0.6,0.1-1.2,0.1-1.8c0.1-0.9,0.2-1.7,0.3-2.6
		c0.1-0.6,0.1-1.2,0.1-1.8c0.1-0.9,0.2-1.9,0.3-2.8c0-0.5,0.1-1.1,0.1-1.6c0.1-0.9,0.2-1.8,0.3-2.7c0.1-0.6,0.1-1.1,0.1-1.7
		c0.1-0.9,0.2-1.8,0.3-2.7c0.1-0.6,0.1-1.2,0.1-1.7c0.1-0.9,0.2-1.9,0.3-2.8c0.1-0.6,0.1-1.2,0.1-1.7c0.1-0.9,0.2-1.8,0.3-2.7
		c0.1-0.6,0.1-1.2,0.1-1.7c0.1-0.9,0.2-1.9,0.3-2.8c0.1-0.6,0.1-1.1,0.1-1.7c0.1-0.9,0.2-1.8,0.3-2.6c0.1-0.6,0.1-1.2,0.1-1.8
		c0.1-0.9,0.2-1.9,0.3-2.8c0.1-0.6,0.1-1.2,0.1-1.7c0.1-0.9,0.2-1.8,0.3-2.6c0.1-0.6,0.1-1.2,0.1-1.8c0.1-0.6,0.1-1.3,0.2-1.9
		c0-0.2-0.1-0.3-0.3-0.3c-8,0-16.1,0-24.1,0c-0.2,0-0.3,0.1-0.3,0.3c0,2.4,0,4.8,0,7.3c-0.1,0-0.3,0-0.4,0c-6.1,0-12.1,0-18.2,0
		c-0.1,0-0.3,0-0.4,0c0.2,2.6,0.5,5.1,0.7,7.6c0.2,0,0.3,0,0.4,0c5.8,0,11.7,0,17.5,0c0.1,0,0.3,0,0.4,0
		C35.8,24.3,35.8,26.9,35.8,29.4z"/>
	<path d="M35.8,14.1c0-2.4,0-4.8,0-7.3c0-0.3,0.1-0.3,0.3-0.3c8,0,16.1,0,24.1,0c0.2,0,0.3,0.1,0.3,0.3c-0.1,0.6-0.1,1.3-0.2,1.9
		c-0.1,0.6-0.1,1.2-0.1,1.8c-0.1,0.9-0.2,1.8-0.3,2.6c-0.1,0.6-0.1,1.2-0.1,1.7c-0.1,0.9-0.2,1.9-0.3,2.8c-0.1,0.6-0.1,1.2-0.1,1.8
		c-0.1,0.9-0.2,1.8-0.3,2.6c-0.1,0.6-0.1,1.1-0.1,1.7c-0.1,0.9-0.2,1.9-0.3,2.8c-0.1,0.6-0.1,1.2-0.1,1.7c-0.1,0.9-0.2,1.8-0.3,2.7
		c-0.1,0.6-0.1,1.2-0.1,1.7c-0.1,0.9-0.2,1.9-0.3,2.8c-0.1,0.6-0.1,1.2-0.1,1.7c-0.1,0.9-0.2,1.8-0.3,2.7c-0.1,0.6-0.1,1.1-0.1,1.7
		c-0.1,0.9-0.2,1.8-0.3,2.7c0,0.5-0.1,1.1-0.1,1.6c-0.1,0.9-0.2,1.9-0.3,2.8c-0.1,0.6-0.1,1.2-0.1,1.8c-0.1,0.9-0.2,1.7-0.3,2.6
		c-0.1,0.6-0.1,1.2-0.1,1.8c-0.1,0.9-0.2,1.8-0.3,2.7c0,0.5-0.1,1-0.2,1.5c0,0.1-0.1,0.2-0.2,0.2c-2.9,0.8-5.7,1.6-8.6,2.4
		c-2.9,0.8-5.7,1.6-8.6,2.4c-0.8,0.2-1.7,0.5-2.6,0.7c0-2.6,0-5.2,0-7.8c0,0,0.1,0,0.1-0.1c0,0,0,0,0.1,0c5.1-1.4,10.1-2.8,15.1-4.2
		c0.1,0,0.2-0.2,0.2-0.3c0.1-0.4,0.1-0.8,0.1-1.2c0.2-2.1,0.4-4.2,0.6-6.3c0.2-1.8,0.3-3.7,0.5-5.5c0.2-2.1,0.4-4.3,0.6-6.4
		c0.2-1.8,0.3-3.6,0.5-5.4c0.2-2.1,0.4-4.3,0.6-6.4c0.1-1.6,0.3-3.2,0.4-4.9c0.1-0.8,0.1-1.6,0.2-2.4c-0.1,0-0.3,0-0.4,0
		c-6.1,0-12.2,0-18.2,0C36,14.1,35.9,14.1,35.8,14.1L35.8,14.1z"/>
	<path d="M35.8,49.1c0-4,0-8,0-12.1c0,0,0,0,0,0c0.1,0,0.3,0,0.4,0c2.8,0,5.7,0,8.5,0c0.1,0,0.3,0,0.4,0c0,0.1,0,0.2,0,0.3
		c-0.1,1.6-0.3,3.1-0.4,4.7c-0.1,1.5-0.3,3-0.4,4.6c0,0.2-0.1,0.3-0.3,0.4C41.2,47.7,38.5,48.4,35.8,49.1
		C35.8,49.2,35.8,49.2,35.8,49.1z"/>
	<path d="M35.8,29.4c0-2.6,0-5.1,0-7.7c0,0,0,0,0,0c0.1,0,0.3,0,0.4,0c3.3,0,6.6,0,9.8,0c0.1,0,0.3,0,0.4,0
		c-0.2,2.6-0.5,5.2-0.7,7.8c-0.2,0-0.3,0-0.4,0c-2.6,0-5.2,0-7.8,0C37,29.5,36.4,29.5,35.8,29.4C35.8,29.5,35.8,29.5,35.8,29.4z"/>
</g>
</svg>
