<?xml version="1.0" encoding="utf-8"?>
<!-- Generator: Adobe Illustrator 23.0.3, SVG Export Plug-In . SVG Version: 6.00 Build 0)  -->
<svg version="1.1" id="Layer_1" xmlns="http://www.w3.org/2000/svg" xmlns:xlink="http://www.w3.org/1999/xlink" x="0px" y="0px"
	 viewBox="0 0 216 216" style="enable-background:new 0 0 216 216;" xml:space="preserve">
<path d="M108,164.4c-1.6,0-1.6,0-16.2-12.5c-7.2-6.2-17.3-14.9-29.9-25.7c-21.6-18.7-43.2-37.4-43.2-37.4c-1.5-1.3-1.6-3.5-0.3-4.9
	c1.3-1.5,3.5-1.6,4.9-0.3c30.2,26.3,74.7,64.8,84.6,73.1c9.9-8.3,54.4-46.8,84.6-73.1c1.5-1.3,3.7-1.1,4.9,0.3
	c1.3,1.5,1.1,3.7-0.3,4.9c0,0-21.5,18.7-43.2,37.4c-12.6,10.9-22.6,19.5-29.9,25.7C109.6,164.4,109.6,164.4,108,164.4z"/>
</svg>
