<?xml version="1.0" encoding="utf-8"?>
<!-- Generator: Adobe Illustrator 23.0.3, SVG Export Plug-In . SVG Version: 6.00 Build 0)  -->
<svg version="1.1" id="Layer_1" xmlns="http://www.w3.org/2000/svg" xmlns:xlink="http://www.w3.org/1999/xlink" x="0px" y="0px"
	 viewBox="0 0 72 72" style="enable-background:new 0 0 72 72;" xml:space="preserve">
<g>
	<path d="M60.9,55.9c-0.9-5.2-1.7-10.4-2.5-15.6c-0.4-2.7-0.9-5.3-1.4-8c-0.1-0.5-0.1-1-0.2-1.4c-0.5-3-1-6.1-1.5-9.1
		c-0.3-1.6-0.6-3.3-0.9-4.9c-0.4,0.3-0.9,0.5-1.2,0.8c-2,2-3.9,4.1-5.9,6c-1.6,1.6-3.4,3.1-5,4.7c-0.9,0.8-1.6,1.8-2.4,2.6
		c-1.7,1.7-3.4,3.3-5.1,4.9c-0.9,0.9-1.7,1.8-2.6,2.8c-1.1,1.1-2.2,2.2-3.4,3.4c-0.9,0.9-1.7,1.8-2.6,2.8c-0.7,0.7-1.4,1.4-2.1,2.1
		c-1.7,1.7-3.4,3.3-5.1,5c-1.5,1.6-3,3.3-4.6,4.8c-0.5,0.5-1.3,0.7-2,1c2.7,1.5,5.5,3,8.2,4.5c0.3,0.2,0.6,0.3,0.8,0.5
		c0.5,0.3,0.9,0.5,1.4,0.8c0.3,0.2,0.5,0.3,0.8,0.5c0.3,0.2,0.6,0.3,0.9,0.5c3.2,1.8,6.3,3.6,9.5,5.3c1.4,0.7,2.9,0.5,4.3-0.3
		c7.3-4,14.6-8.1,22-12.1C60.8,56.9,61,56.6,60.9,55.9z"/>
	<path d="M35.2,26.5c0.7,1.3,1.4,2.6,2.2,3.9c0.1,0,0.2,0,0.2,0c0,0,0,0,0,0c0.1-0.1,0.2-0.2,0.2-0.2l0,0c0.1-0.1,0.2-0.2,0.2-0.2
		l0,0c0.1-0.1,0.2-0.2,0.2-0.2l0,0c0.1-0.1,0.2-0.2,0.2-0.2l0,0c0.1-0.1,0.2-0.2,0.2-0.2l0,0c0.1-0.1,0.2-0.2,0.2-0.2l0,0
		c0.1-0.1,0.2-0.2,0.2-0.2l0,0c0.1-0.1,0.2-0.2,0.2-0.2c0.1-0.1,0.2-0.2,0.2-0.3c1.2-1.2,2.4-2.4,3.6-3.6c0.1-0.1,0.2-0.2,0.3-0.2
		l0,0c0-0.1,0-0.2,0-0.2c-2-3.8-4.1-7.7-6.1-11.5c-0.4-0.7-0.9-1.2-1.7-1c-0.6,0.1-1.3,0.5-1.5,1c-1.2,2-2.2,4-3.2,6
		c0,0.1,0,0.3,0,0.4C32.5,21.5,33.9,24,35.2,26.5z"/>
	<polygon points="39.6,28.4 39.6,28.4 39.5,28.4 	"/>
	<polygon points="11.6,55.9 11.6,55.9 11.6,55.9 	"/>
	<path d="M18.5,42.3c3.9-7.3,7.7-14.7,11.6-22c0.3-0.5,0.7-0.9,1-1.3c0-0.2,0-0.3,0-0.4c-0.2-0.2-0.5-0.4-0.7-0.6
		c-0.7-1.4-1.5-2.8-2.2-4.3c-2-3.7-3.9-7.4-5.9-11.1C22,2.2,21,1.9,20.3,2c-0.4,0-0.9,0.9-1,1.4c-0.8,5-1.6,9.9-2.4,14.9
		c-0.3,2.2-0.6,4.3-0.9,6.5c-0.1,0.3-0.2,0.6-0.2,0.9c-0.7,4.5-1.4,9.1-2.1,13.6c-0.5,3.5-1,6.9-1.5,10.4c0.1,0,0.2,0,0.4-0.1
		c-0.1,0-0.3,0-0.4,0.1c-0.3,2-0.6,4.1-1,6.1c0.2,0,0.4,0,0.5,0c0.6-1.3,1.1-2.7,1.7-3.9C15,48.7,16.8,45.5,18.5,42.3z"/>
</g>
</svg>
