<?xml version="1.0" encoding="utf-8"?>
<!-- Generator: Adobe Illustrator 23.0.3, SVG Export Plug-In . SVG Version: 6.00 Build 0)  -->
<svg version="1.1" id="Layer_1" xmlns="http://www.w3.org/2000/svg" xmlns:xlink="http://www.w3.org/1999/xlink" x="0px" y="0px"
	 viewBox="0 0 72 72" style="enable-background:new 0 0 72 72;" xml:space="preserve">
<path d="M36,70.7C16.9,70.6,2.1,55.5,1.3,37.5C0.5,17.4,16.5,1.3,35.9,1.3c19.4,0,34.8,15.3,34.8,34.7C70.7,55.8,54.8,70.7,36,70.7z
	 M30.1,49.3c-0.2,0-0.4-0.1-0.6-0.2c-1.4-0.3-2.9-0.6-4.3-1c-1.9-0.6-3.7-1.6-5.1-3.1c-2-2.1-2.9-4.6-3.3-7.4
	c-0.7-4-0.1-7.7,2.5-10.9c0.2-0.2,0.3-0.7,0.2-0.9c-0.7-2.1-0.5-4.1,0.1-6.2c0.4-1.4,0.6-1.5,2-1.3c0.4,0.1,0.7,0.1,1.1,0.2
	c1.7,0.8,3.3,1.5,5,2.3c0.5,0.3,1,0.3,1.6,0.3c2.3-0.3,4.6-0.7,6.8-0.8c1.8-0.1,3.7,0,5.4,0.5c1.8,0.5,3.1,0,4.6-0.9
	c1.5-0.9,3.1-1.6,5-1.7c0.7-0.1,1.1,0.2,1.3,0.9c0.5,2.1,0.8,4.1,0.3,6.2c-0.2,0.7,0,1.1,0.4,1.6c1.6,2.1,2.5,4.4,2.4,7
	c0,1.2,0,2.4-0.2,3.6c-0.4,3.5-1.7,6.5-4.6,8.7c-2.2,1.7-4.8,2.4-7.6,2.9c-0.4,0.1-0.8,0.1-1.3,0.2c0.4,0.7,0.9,1.3,1.1,1.9
	c0.3,1.3,0.6,2.7,0.7,4c0.1,2.6,0,5.2,0,7.8c0,1.3,0.7,1.9,2,1.7c0.3,0,0.5-0.1,0.7-0.2c4-1.5,7.6-3.7,10.7-6.6
	c5.6-5.4,8.6-12,9.3-19.7c0.4-4.3-0.3-8.4-1.6-12.5c-1.5-4.4-3.9-8.2-7.2-11.4c-6.9-6.7-15.2-9.5-24.8-8.5c-6,0.6-11.4,2.9-16,6.9
	C8.6,19.6,5,28.3,5.8,38.9c0.3,3.5,1.2,6.8,2.7,10c2.7,5.8,6.9,10.3,12.4,13.4c1.6,0.9,3.3,1.6,5,2.3c1.6,0.6,2.6-0.1,2.6-1.8
	c0-1.2,0-2.3,0-3.5c0-1.2,0-1.2-1.2-1c-0.8,0.1-1.7,0.3-2.5,0.2c-3.2-0.4-5.7-1.8-6.9-5.1c-0.6-1.6-1.6-2.9-3.1-3.8
	c-0.3-0.2-0.6-0.5-0.9-0.8c-0.4-0.4-0.3-0.8,0.3-0.9c1.2-0.1,2.4-0.1,3.4,0.7c0.9,0.8,1.7,1.7,2.4,2.6c2,2.7,5,3.6,8,2.2
	c0.2-0.1,0.5-0.3,0.6-0.5C29.2,51.9,29.6,50.6,30.1,49.3z"/>
</svg>
