<svg id="Layer_1" data-name="Layer 1" xmlns="http://www.w3.org/2000/svg" viewBox="0 0 71.52 71.53">
  <title>githubImg</title>
  <path d="M36.07,71.72A35.77,35.77,0,1,1,71.83,36,35.81,35.81,0,0,1,36.07,71.72ZM30,49.65l-.66-.17c-1.48-.34-3-.59-4.43-1a12,12,0,0,1-5.22-3.18,14,14,0,0,1-3.42-7.63,13.68,13.68,0,0,1,2.55-11.29,1.15,1.15,0,0,0,.23-.93A10.48,10.48,0,0,1,19.19,19c.41-1.39.6-1.56,2-1.35a4.34,4.34,0,0,1,1.09.26c1.72.78,3.45,1.55,5.13,2.42a2.49,2.49,0,0,0,1.65.26,67.09,67.09,0,0,1,7.05-.84,18.52,18.52,0,0,1,5.56.55,5.47,5.47,0,0,0,4.74-.93,11.33,11.33,0,0,1,5.1-1.77,1.12,1.12,0,0,1,1.34.94A12.94,12.94,0,0,1,53.16,25a1.79,1.79,0,0,0,.39,1.68A10.91,10.91,0,0,1,56,33.88c0,1.23,0,2.46-.16,3.68a12.27,12.27,0,0,1-4.76,8.93,17,17,0,0,1-7.79,2.94l-1.3.24a8.93,8.93,0,0,1,1.1,2,21,21,0,0,1,.69,4.16c.11,2.67,0,5.35,0,8,0,1.36.72,2,2.06,1.77a3.49,3.49,0,0,0,.77-.2A31.4,31.4,0,0,0,67.26,38.23a30.94,30.94,0,0,0-1.69-12.85A29.71,29.71,0,0,0,58.1,13.64,30.72,30.72,0,0,0,32.53,4.85a29.23,29.23,0,0,0-16.48,7.07A30.79,30.79,0,0,0,5,38.92,29.37,29.37,0,0,0,7.79,49.23,30.66,30.66,0,0,0,20.58,63.09a38.88,38.88,0,0,0,5.17,2.36c1.61.64,2.63-.14,2.65-1.84,0-1.2,0-2.41,0-3.61s0-1.23-1.22-1.07a11.14,11.14,0,0,1-2.62.22c-3.35-.38-5.9-1.87-7.12-5.24A7.7,7.7,0,0,0,14.25,50a4.27,4.27,0,0,1-.91-.79c-.4-.46-.29-.8.31-.88a4.18,4.18,0,0,1,3.5.76,18.6,18.6,0,0,1,2.43,2.73,6.49,6.49,0,0,0,8.29,2.28,1.31,1.31,0,0,0,.62-.56C29,52.3,29.49,51,30,49.65Z" transform="translate(-0.31 -0.19)"/>
</svg>
