<?xml version="1.0" encoding="utf-8"?>
<!-- Generator: Adobe Illustrator 23.0.3, SVG Export Plug-In . SVG Version: 6.00 Build 0)  -->
<svg version="1.1" id="Layer_1" xmlns="http://www.w3.org/2000/svg" xmlns:xlink="http://www.w3.org/1999/xlink" x="0px" y="0px"
	 viewBox="0 0 72 72" style="enable-background:new 0 0 72 72;" xml:space="preserve">
<path d="M35.8,70.2c-3.9-1.2-7.8-2.3-11.8-3.5c-3.8-1.1-7.5-2.1-11.3-3.1c-1.1-0.3-1.5-0.8-1.6-2C10.3,52,9.4,42.3,8.6,32.6
	C7.7,22.5,6.8,12.4,5.9,2.2C5.9,2.1,6,2,6.1,1.8c20,0,39.9,0,60.1,0c-0.3,3.4-0.6,6.6-0.8,9.9c-0.6,6.5-1.2,13-1.8,19.5
	c-0.6,6.5-1.2,13-1.8,19.5c-0.3,3.5-0.7,7.1-0.9,10.6c-0.1,1.5-0.5,2.2-2,2.6c-7.3,1.9-14.5,4-21.7,6c-0.3,0.1-0.7,0.3-1,0.5
	C36.1,70.2,35.9,70.2,35.8,70.2z M25.5,22c3.8,0,7.1,0,10.5,0c5.6,0,11.3,0,16.9,0c0.6,0,1.5-0.6,1.6-1c0.4-2.2,0.5-4.5,0.7-6.9
	c-12.8,0-25.5,0-38.2,0c-0.1,0.4-0.2,0.6-0.2,0.7c0.6,6.9,1.3,13.8,1.8,20.8c0.1,1.4,0.7,1.6,2,1.6c7.5,0,14.9,0,22.4,0
	c0.7,0,1.3,0,2,0c-0.2,2-0.7,3.8-0.5,5.4c0.6,3.9-1.7,4.9-4.8,5.3c-1.7,0.2-3.4,0.9-5,0.7c-2-0.2-4-1.1-6-1.5
	c-1.1-0.2-1.4-0.8-1.4-1.8c0-1.5-0.3-3-0.4-4.4c-2.7,0-5.1,0-7.8,0c0.3,3.8,0.6,7.5,1,11.1c0.1,0.4,0.8,1,1.4,1.2
	c4.4,1.3,8.9,2.6,13.3,3.8c0.7,0.2,1.5,0.2,2.2,0c4.4-1.2,8.7-2.5,13.1-3.6c1.1-0.3,1.5-0.7,1.6-1.9c0.4-5.3,1-10.6,1.4-15.8
	c0.2-2,0.3-4,0.4-6.2c-9.3,0-18.4,0-27.7,0C25.9,26.8,25.7,24.5,25.5,22z"/>
</svg>
