<?xml version="1.0" encoding="utf-8"?>
<!-- Generator: Adobe Illustrator 23.0.3, SVG Export Plug-In . SVG Version: 6.00 Build 0)  -->
<svg version="1.1" id="Layer_1" xmlns="http://www.w3.org/2000/svg" xmlns:xlink="http://www.w3.org/1999/xlink" x="0px" y="0px"
	 viewBox="0 0 72 72" style="enable-background:new 0 0 72 72;" xml:space="preserve">
<path d="M0.2,71.8c0-23.9,0-47.8,0-71.7c23.9,0,47.8,0,71.7,0c0,23.9,0,47.8,0,71.7C47.9,71.8,24.1,71.8,0.2,71.8z M42.6,59.4
	c0.8,1,1.4,2,2.2,2.9c4.6,4.9,13,4.7,17.2,2.2c5.4-3.3,5-11,1.7-14.2c-1.4-1.4-3.1-2.4-4.9-3.3c-1.5-0.7-3-1.3-4.5-2
	c-0.7-0.4-1.5-0.8-2-1.3c-1.7-1.6-0.9-4.4,1.3-4.9c1.8-0.4,3.4,0.1,4.6,1.6c0.3,0.3,0.5,0.7,0.8,1.1c1.8-1.1,3.5-2.2,5.2-3.3
	c-1.4-2.4-3.2-4.2-5.8-4.9c-2.3-0.6-4.6-0.7-6.9-0.1c-3.6,1-6,3.3-6.6,7.1c-0.6,3.8,0.6,7.1,3.9,9.4c1.6,1.1,3.5,1.9,5.3,2.7
	c1.2,0.6,2.4,1.1,3.5,1.7c0.8,0.4,1.5,1.1,1.7,2.1c0.4,1.9-0.7,3.5-2.8,3.9c-2.8,0.6-5.3-0.1-7.2-2.4c-0.4-0.5-0.7-0.9-1.1-1.5
	C46.4,57.2,44.6,58.2,42.6,59.4z M24.4,56.7c-1.9,1.1-3.6,2.2-5.6,3.4c0.8,1.1,1.4,2.1,2.2,2.9c3,3.1,6.8,3.6,10.8,2.9
	c3.8-0.7,6.1-3,6.9-6.7c0.2-0.8,0.3-1.7,0.3-2.6c0-7.6,0-15.2,0-22.8c0-0.5-0.2-0.7-0.7-0.7c-1.7,0-3.4,0-5.1,0
	c-0.8,0-0.9,0.2-0.9,1c0,7.2,0,14.4,0,21.6c0,0.8-0.1,1.7-0.3,2.5c-0.2,1-0.9,1.6-1.8,1.9c-1.8,0.5-3.5,0-4.6-1.5
	C25.2,57.9,24.9,57.3,24.4,56.7z"/>
</svg>
