<?xml version="1.0" encoding="utf-8"?>
<!-- Generator: Adobe Illustrator 23.0.3, SVG Export Plug-In . SVG Version: 6.00 Build 0)  -->
<svg version="1.1" id="Layer_1" xmlns="http://www.w3.org/2000/svg" xmlns:xlink="http://www.w3.org/1999/xlink" x="0px" y="0px"
	 viewBox="0 0 72 72" style="enable-background:new 0 0 72 72;" xml:space="preserve">
<style type="text/css">
	.st0{fill:#2E55C3;}
	.st1{fill:#244CC0;}
	.st2{fill:#1844C5;}
	.st3{fill:#E8E9E9;}
</style>
<path class="st0" d="M497.3-167.1c-2.4,6.7-4.7,13.4-7.1,20.1C492.6-153.7,494.9-160.4,497.3-167.1z"/>
<path class="st1" d="M1339.8-96.1c-0.9-4-1.8-7.9-2.7-11.9C1338.1-104,1338.9-100.1,1339.8-96.1z"/>
<path class="st0" d="M500.1-174.2c-0.7,1.7-1.4,3.5-2,5.2C498.8-170.8,499.4-172.5,500.1-174.2z"/>
<path class="st0" d="M490.3-147.1c-0.4,1-0.7,2.1-1.1,3.1C489.5-145.1,489.9-146.1,490.3-147.1z"/>
<path class="st0" d="M498.2-169.2c-0.3,0.7-0.6,1.5-1,2.2C497.5-167.7,497.9-168.5,498.2-169.2z"/>
<path class="st2" d="M604.4,57.8c2.4,2,4.7,4,7.1,6.1C607.4,63.9,603.6,63.5,604.4,57.8z"/>
<path class="st3" d="M619.3,69c1.7,1,3.4,2,5,3C622.6,71,621,70,619.3,69z"/>
<path class="st3" d="M616.3,67c1,0.7,2,1.3,3,2C618.3,68.3,617.3,67.6,616.3,67z"/>
<path class="st3" d="M615.1,66c0.4,0.3,0.8,0.6,1.2,1C615.9,66.7,615.5,66.4,615.1,66z"/>
<path class="st2" d="M883.3-446c-0.4,0.4-0.8,0.8-1.2,1.2c-0.3-0.4-0.5-0.8-0.8-1.2C882-446,882.6-446,883.3-446z"/>
<g>
	<path d="M62.5,19.1c-0.1,0-0.3-0.1-0.4-0.1c-1,0-2,0-3-0.1v0c-0.1-0.1-0.1-0.2-0.2-0.3c-1.5-3.6-5.3-5.3-9.1-4.1c0-1.5,0-3,0-4.6
		c-0.1-0.1-0.1-0.3-0.3-0.4c-0.7-0.5-1.4-0.9-2.1-1.4c-2.2-1.4-4.4-2.7-6.5-4.1C39.1,3,37.3,2,35.6,0.9c0,0.1-0.1,0.1-0.1,0.2
		c0,0,0,0,0,0c0-0.1,0.1-0.1,0.1-0.2C35.3,1,35,1.1,34.7,1.2c-1.1,0.7-2.2,1.4-3.3,2.1v0C31,3.6,30.5,4,30,4.3c-0.1,0-0.1,0-0.2,0.1
		c-2.8,1.7-5.6,3.5-8.3,5.2c-0.1,0.1-0.2,0.3-0.2,0.5c0,0.7,0,1.3,0,2c0,3.2,0,6.4,0,9.7c0,0.8,0,1.5,0,2.3c-0.8,0-1.4,0-2.1,0
		c-0.1-0.1-0.2-0.1-0.3-0.2c-2-1.3-4.2-1.6-6.5-1.1c-4.4,0.9-7.3,5.5-6.3,9.9c0.4,1.7,1.2,3.1,2.4,4.4c0.2,0.2,0.4,0.4,0.6,0.5
		c0.1,0.1,0.2,0.1,0.3,0.2c0,0,0.1,0.1,0.1,0.1c0.1,0.1,0.2,0.1,0.3,0.2c0,0,0,0,0,0c0.2,0.1,0.3,0.2,0.5,0.3
		c0.2,0.1,0.5,0.2,0.7,0.4c0.2,0.1,0.3,0.1,0.5,0.2c0.1,0,0.2,0.1,0.3,0.1c0,0,0,0,0,0c0.8,0.2,1.6,0.4,2.4,0.4c1.9,0.1,3.7,0,5.6,0
		c0,0.4-0.1,0.7-0.1,1.1c-0.5,3.3-1,6.7-1.5,10c-0.4,2.4-0.7,4.8-1.1,7.3c-0.1,0.5-0.1,1-0.1,1.5c0,0.1,0,0.1,0,0.2
		c0,0.2-0.1,0.3-0.1,0.5c0,0.1,0,0.1,0,0.2c-0.2,0.1-0.2,0.2,0,0.3c-0.2,1.3-0.4,2.7-0.6,4c0,0.1,0,0.2-0.1,0.4
		c0,0.1-0.1,0.2-0.1,0.3c0,0,0,0.1,0.1,0.1c5.4,3.1,11.2,4.7,17.4,5.1c2.2,0.1,4.4,0,6.6-0.2c4.4-0.5,8.6-1.7,12.6-3.7
		c0.8-0.4,1.5-0.8,2.3-1.3c0-0.1-0.1-0.2-0.1-0.3c0-0.3-0.1-0.7-0.1-1c-0.2-1.2-0.4-2.4-0.6-3.5c-0.2-1.2-0.3-2.5-0.5-3.7
		c-0.3-2.1-0.6-4.3-0.9-6.4c-0.3-2.1-0.6-4.2-0.9-6.2c-0.2-1.3-0.4-2.7-0.6-4c-0.1-0.9-0.3-1.9-0.4-2.8c-0.1-0.6-0.2-1.2-0.3-1.8
		c-0.1-0.5-0.2-0.9-0.3-1.4c0-0.1,0-0.1,0-0.2c0-0.1,0-0.2,0-0.3c-0.1-0.7-0.2-1.3-0.3-2c1.1,0,2.2,0,3.4,0c0-0.9,0-1.7,0-2.5
		c0.2,0,0.4,0,0.6,0c-0.2,0-0.4-0.1-0.6-0.1c0-0.7,0-1.5,0-2.2c0,0.7,0,1.5,0,2.2c0.2,0,0.4,0.1,0.6,0.1c0.1,0,0.2,0,0.3,0
		c2.6,0,5.2,0.1,7.8-0.1c2.3-0.2,4.1-2.4,4.1-4.7C66.3,21.6,64.8,19.7,62.5,19.1z M30.3,33.9c0-0.8-0.1-1.7-0.5-2.5
		c-0.2-0.5-0.5-0.9-0.9-1.3c0.3,0.4,0.6,0.8,0.9,1.3C30.2,32.2,30.3,33,30.3,33.9z M21.9,33.9c0.1-0.2,0.1-0.4,0.2-0.5
		C22,33.5,22,33.7,21.9,33.9c-0.1,0.3-0.2,0.5-0.3,0.8c0,0,0,0,0,0C21.7,34.4,21.8,34.2,21.9,33.9z M25.7,39
		c0.4-0.1,0.7-0.1,1.1-0.3c0.3-0.1,0.6-0.2,0.8-0.3c0.2-0.1,0.4-0.2,0.5-0.3c0.1-0.1,0.2-0.2,0.3-0.3c-0.1,0.1-0.2,0.2-0.3,0.3
		c-0.2,0.1-0.4,0.2-0.5,0.3c-0.3,0.1-0.5,0.3-0.8,0.3c-0.1,0-0.1,0.1-0.2,0.1c0.1,0,0.1-0.1,0.2-0.1C26.5,38.9,26.1,38.9,25.7,39z
		 M30.3,34c0,0.1,0,0.2,0,0.3C30.3,34.2,30.3,34.1,30.3,34z M30.3,34.5c0,0.1,0,0.2-0.1,0.3C30.2,34.7,30.2,34.6,30.3,34.5z
		 M28.3,29.4c0.2,0.1,0.3,0.3,0.4,0.4C28.6,29.7,28.5,29.5,28.3,29.4z M35.5,52.2c-1.4,0.5-2.8,0.9-4.3,1.4c-2,0.7-4.1,1.3-6.1,2
		c-0.1,0-0.3,0.1-0.5,0.1c0.4-2.8,0.8-5.6,1.2-8.3c0-0.1,0.1-0.1,0.1-0.2c0.2-1.5,0.4-3,0.7-4.5c0.1-0.8,0.1-0.8,0.9-1
		c1.9-0.6,3.7-1.2,5.6-1.9c0.8-0.3,1.6-0.5,2.4-0.8c0,0,0.1-0.1,0.1-0.1c0,0,0-0.1,0-0.1c0,0,0,0.1,0,0.1c1.1-0.3,2.2-0.7,3.2-1
		c1.5-0.5,2.9-1,4.4-1.4c0.1,0,0.1,0,0.2,0c0.5,3.3,1,6.7,1.5,10c0.1,0.8,0.2,1.5,0.3,2.3c0,0.3-0.2,0.3-0.3,0.4
		c-2,0.6-4,1.3-5.9,1.9c-1.1,0.4-2.3,0.7-3.4,1.1C35.6,52.1,35.5,52.1,35.5,52.2z M35.5,36.5c0,0.5,0,1,0,1.4
		C35.5,37.4,35.5,37,35.5,36.5c0,0,0.1,0,0.2,0C35.6,36.4,35.5,36.5,35.5,36.5z M35.9,9.4c2.1,1.3,4.3,2.7,6.4,4
		c0.3,0.2,0.4,0.3,0.4,0.7c0,1,0,2,0,3c0,2.3,0,4.5,0,6.9c-2.4,0-4.8,0-7.2,0l0,0c-0.1,0-0.1,0-0.2,0l0,0c-2.3,0-4.6,0-7,0
		c0-2.3,0-4.5,0-6.7c-0.1,0.1-0.1,0.1-0.2,0.2c0.1-0.1,0.1-0.1,0.2-0.2c0-1.1,0-2.2,0-3.3c0-0.3,0.1-0.4,0.3-0.5
		c0.6-0.3,1.1-0.7,1.7-1v0c0.3-0.2,0.6-0.4,0.9-0.6c1.4-0.9,2.8-1.7,4.3-2.6c0,0,0,0,0,0.1C35.6,9.3,35.7,9.4,35.9,9.4z M30.9,69.4
		c0.3,0,0.7,0.1,1,0.1C31.6,69.5,31.2,69.5,30.9,69.4z M32.4,69.6c0.8,0.1,1.7,0.1,2.6,0.1C34.1,69.7,33.3,69.6,32.4,69.6z
		 M59.5,21.9c0-0.1,0-0.2,0-0.3C59.5,21.7,59.5,21.8,59.5,21.9z"/>
	<polygon points="9.4,37.7 9.4,37.7 9.4,37.7 	"/>
	<polygon points="8.3,36.9 8.3,36.9 8.3,36.9 	"/>
</g>
</svg>
