<?xml version="1.0" encoding="utf-8"?>
<!-- Generator: Adobe Illustrator 23.0.3, SVG Export Plug-In . SVG Version: 6.00 Build 0)  -->
<svg version="1.1" id="Layer_1" xmlns="http://www.w3.org/2000/svg" xmlns:xlink="http://www.w3.org/1999/xlink" x="0px" y="0px"
	 viewBox="0 0 72 72" style="enable-background:new 0 0 72 72;" xml:space="preserve">
<g>
	<path d="M27.9,24.1c0,8,0,16.1,0,24.1c0,1.8,0,3.6,0,5.4c-0.3,6.2-4.6,8.2-9.7,7.3c-1.2-0.2-2.5-0.7-3.6-1.3
		c-2.4-1.3-4.8-2.6-7.1-4.1C6.7,55,6.1,54,5.4,53.2C5.2,53,5,52.8,4.8,52.6c0-11,0-22,0-33.1c0.1-0.1,0.3-0.1,0.3-0.2
		c0.6-1.7,1.9-2.7,3.5-3.6c8.2-4.7,16.4-9.5,24.6-14.3c0.3-0.1,5.1-0.3,5.3-0.2c8.4,4.9,16.8,9.8,25.2,14.6c1.2,0.7,2.3,1.5,3,2.9
		c0.1,0.1,0.3,0.2,0.5,0.3c0,11.3,0,22.5,0,33.8c-0.2,0.2-0.4,0.3-0.6,0.5c-0.8,0.8-1.4,1.8-2.3,2.3c-8.6,5.1-17.3,10-25.9,15
		c-0.1,0.1-4.2,0.1-4.4,0c-3.1-1.8-6.2-3.6-9.3-5.5c-0.3-0.1-0.4-0.4-0.8-0.7c1.6-0.8,3.1-1.5,4.6-2.1c0.3-0.1,0.7,0.2,1.1,0.4
		c1.9,1.1,3.7,2.3,5.5,3.3c0.4,0.2,1.3,0.3,1.7,0c8.3-4.7,16.5-9.5,24.8-14.3c0.7-0.4,0.9-0.8,0.9-1.6c0-9.5,0-19,0-28.5
		c0-0.8-0.2-1.3-0.9-1.7C53.3,15.3,45.2,10.6,37,5.9c-0.7-0.4-1.3-0.4-2,0c-8.1,4.7-16.3,9.4-24.5,14.1c-0.7,0.4-1,0.9-1,1.7
		c0,9.5,0,19,0,28.5c0,0.8,0.3,1.3,1,1.7c2,1.1,4.1,2.4,6.1,3.5c0.6,0.3,1.3,0.6,1.9,0.8c2.7,0.7,4.6-0.9,4.6-3.6
		c0-9.3,0-18.5,0-27.8c0-1.9,0-2,2-1.9c0.9,0,1.8,0.3,2.7,0.4C27.9,23.6,27.9,23.8,27.9,24.1z"/>
	<path d="M36.4,49.5c-3.6-1.1-5.7-3.7-6-7.6c-0.1-1.4,0.1-1.6,1.5-1.6c0.2,0,0.4,0,0.6,0c2.4,0,2.4,0,3.1,2.2
		c0.5,1.5,1.6,2.5,3.1,2.9c3.4,0.9,6.8,0.9,10.2,0.1c0.6-0.1,1.2-0.5,1.7-0.8c1.9-1.5,1.6-4.4-0.7-5.1c-2.5-0.7-5.1-1-7.7-1.4
		c-2-0.4-4.1-0.7-6.1-1.3c-2.6-0.8-4.4-2.5-4.7-5.4c-0.3-3.1,0.6-5.6,3.2-7.4c1.8-1.2,3.9-1.8,6.1-2c3.2-0.3,6.4-0.2,9.5,0.9
		c3.5,1.3,5.3,3.9,5.7,7.6c0.1,0.8-0.2,1.3-1.1,1.3c-0.2,0-0.5,0-0.7,0c-1.8,0.2-3.1-0.1-3.5-2.2c-0.3-1.3-1.5-2.1-2.8-2.5
		c-2.9-0.8-5.9-0.8-8.8-0.1c-0.5,0.1-1,0.4-1.4,0.7c-1,0.7-1.2,1.7-1,2.8c0.1,1,0.9,1.5,1.7,1.7c2.4,0.5,4.8,0.9,7.1,1.3
		c2.1,0.4,4.3,0.7,6.4,1.3c2.6,0.7,4.7,2.3,5,5.2c0.4,3.2-0.4,6-3.1,8c-2.1,1.5-4.5,2.1-7,2.3c-0.9,0.1-1.9,0.1-2.8,0.1
		C43.8,50.8,38.8,50.2,36.4,49.5z"/>
	<path d="M27.9,24.1c0-0.2-0.1-0.5-0.1-0.7C27.9,23.6,27.9,23.8,27.9,24.1z"/>
</g>
</svg>
