<?xml version="1.0" encoding="utf-8"?>
<!-- Generator: Adobe Illustrator 23.0.3, SVG Export Plug-In . SVG Version: 6.00 Build 0)  -->
<svg version="1.1" id="Layer_1" xmlns="http://www.w3.org/2000/svg" xmlns:xlink="http://www.w3.org/1999/xlink" x="0px" y="0px"
	 viewBox="0 0 72 72" style="enable-background:new 0 0 72 72;" xml:space="preserve">
<style type="text/css">
	.st0{fill:#244CC0;}
</style>
<path class="st0" d="M1339.8-96.1c-0.9-4-1.8-7.9-2.7-11.9C1338.1-104,1338.9-100.1,1339.8-96.1z"/>
<g>
	<path d="M80.8,0.7c0.1,0.1,0.1,0.2,0.2,0.2c0.1-0.1,0.2-0.2,0.2-0.2C81.1,0.6,80.9,0.7,80.8,0.7z"/>
	<path d="M36.4,3C17.3,3,2.2,17.9,2.2,37c0,18.6,14.9,33.8,34,33.9C54.8,70.9,70,55.7,70,37C70,18.3,54.9,3,36.4,3z M56.5,18.2
		L56.5,18.2c-0.1-0.2-0.2-0.4-0.3-0.6c-0.2-0.1-0.3-0.3-0.5-0.4c0.2,0.1,0.3,0.3,0.5,0.4C56.3,17.8,56.4,18,56.5,18.2z M51.1,22.3
		c1,1,2,1.9,3,2.9c-1.5,1.1-3.9,0.7-5.4-0.6c-1.9-1.7-2.3-4.4-1-6.5c1.3-2.1,3.8-2.9,6.2-2.1c0.3,0.1,0.5,0.2,0.8,0.3
		c0.1,0.1,0.2,0.2,0.3,0.2c0,0,0,0,0,0c-0.1,0.3-0.2,0.7-0.4,0.9c-1.2,1.2-2.3,2.4-3.5,3.5C50.6,21.6,50.7,21.9,51.1,22.3z
		 M49.2,27.1c-0.4,0.5-0.6,1-1,1.3c-3,2.7-6.1,5.4-9.1,8.1c-1.1,0.9-2.1,1.8-3.2,2.8c-0.9,0.8-1.2-0.2-1.6-0.5
		c-0.6-0.4-0.4-0.8,0.1-1.2c3.9-3.9,7.8-7.8,11.7-11.7c0.6-0.6,1.3-0.9,2-0.5c0.5,0.3,0.8,0.8,1.2,1.3C49.2,26.9,49.2,27,49.2,27.1z
		 M26.7,39c0-0.1,0-0.1,0-0.2c0,0,0-0.1,0-0.2c0,0.1,0,0.1,0,0.2c0.8-0.9,1.6-1.8,2.5-2.8c0.2-0.2,0.5-0.4,0.7-0.7
		c0.9,1.1,1.6,1.9,2.3,2.7l0,0h0c-1.7,0.4-3.4,0.8-5.1,1.2l-0.1,0l-0.1,0C26.8,39.2,26.7,39.1,26.7,39z M29.8,42
		C29.8,42,29.8,42,29.8,42C29.8,42,29.8,42,29.8,42z M30.6,41.3c0,0-0.1,0.1-0.1,0.1C30.5,41.4,30.6,41.4,30.6,41.3z M31.6,40.2
		C31.6,40.2,31.6,40.2,31.6,40.2c0.1-0.1,0.3-0.3,0.4-0.4c0.1-0.1,0.1-0.1,0.2-0.2c0.1-0.1,0.1-0.1,0.2-0.2c0.1-0.1,0.1-0.1,0.2-0.2
		c0.1-0.1,0.1-0.1,0.2-0.2c0.2,0,0.4-0.1,0.6-0.1c0.3,0.4,0.6,0.7,1.1,1.2c-1.1,0.2-2,0.4-3,0.7C31.5,40.5,31.5,40.4,31.6,40.2z
		 M33.1,32.4c0.1-0.1,0.1-0.1,0.2-0.2l0,0c0.1-0.1,0.1-0.1,0.2-0.2l0,0c0.1-0.1,0.2-0.1,0.2-0.2c0.1-0.1,0.2-0.2,0.4-0.4
		c0,0,0,0,0,0c0.8-0.7,1.6-1.5,2.4-2.2c0.1-0.1,0.1-0.1,0.2-0.2c0.1-0.1,0.1-0.1,0.2-0.2l0,0c0,0,0,0,0,0c0,0,0,0,0,0l0,0
		c0,0,0,0,0,0c0.5-0.4,0.9-0.8,1.4-1.2c0,0,0,0,0,0c0.1-0.1,0.1-0.1,0.2-0.2c0,0,0,0,0,0c0,0,0,0,0,0c0,0,0,0,0,0c0,0,0,0,0,0
		c0.3-0.3,0.6-0.5,1-0.8l0,0c0,0,0,0,0,0c0,0,0,0,0,0l0,0c0,0,0,0,0,0c0.9-0.6,1.8-1.3,2.7-1.8c1.5-0.9,3-1.6,4.7-0.7l0,0
		c-0.8,0.8-1.7,1.5-2.4,2.3c-3.5,3.5-7,7-10.5,10.5c-0.6,0.7-1.1,0.7-1.6,0c-0.4-0.5-0.9-0.9-1.3-1.3c-0.2-0.2-0.1-0.6-0.1-0.9
		c0,0,0,0,0,0l0,0c0,0,0,0,0,0c0.3-0.3,0.6-0.6,0.9-0.9C32.2,33.3,32.7,32.8,33.1,32.4z M37.2,43.5C37.2,43.5,37.2,43.5,37.2,43.5
		c-0.4,0.3-0.8,0.7-1.2,1c0,0,0,0,0,0c0,0,0,0,0,0c0,0,0,0,0,0l0,0c-1,0.7-2,1.5-2.9,2.2l0,0c-0.2,0.1-0.4,0.3-0.6,0.4c0,0,0,0,0,0
		c0,0,0,0,0,0c0,0,0,0,0,0l0,0c-1.8,1.1-3.6,2.1-5.4,3.2c-1.4,0.8-2.8,1.6-4.3,2.4c0,0.1,0,0.1-0.1,0.2c0,0.1,0,0.2,0,0.4
		c0,0-0.1,0.1,0,0.1c0,0.1,0.1,0.1,0.1,0.2c0.1,0.5,0.2,1,0.3,1.5c0,0.1,0.1,0.2,0.1,0.3c0.1,0.2,0.1,0.3,0.2,0.5c0,0,0,0.1,0,0.1
		c0,0.1-0.1,0.1-0.1,0.2c0,0,0,0,0,0c-0.1,0-0.3,0-0.4,0c-0.3,0.1-0.7,0.3-1,0.4c-0.1,0-0.3,0-0.4,0c-0.9,0-1.8,0.1-2.7,0.1
		c0.9,0,1.8,0,2.7-0.1c-1.7-0.1-3.4-0.3-5.1-0.4c0-0.1-0.1-0.3-0.1-0.4c0-0.1,0.1-0.1,0.1-0.2l0,0c0.1-0.1,0.1-0.1,0.2-0.2
		c0.3-0.3,0.5-0.5,0.8-0.8c0.1-0.1,0.1-0.1,0.2-0.2c0.1-0.1,0.1-0.1,0.2-0.2c0.2-0.2,0.4-0.4,0.6-0.6c0.1-0.1,0.1-0.1,0.2-0.2l0,0
		c0,0,0,0,0,0c0,0,0,0,0,0l0,0c0,0,0,0,0,0c1.5,0.6,2.4,1.9,3.3,3.1c0.3-0.1,0.7-0.3,1-0.4c-1-1-2-1.9-2.9-2.9
		c-0.2-0.2-0.2-0.7-0.2-1c-0.2,0.2-0.4,0.4-0.6,0.6c0.2-0.2,0.4-0.4,0.6-0.6c0,0,0,0,0,0c0.1-0.1,0.1-0.1,0.2-0.2
		c0.1-0.1,0.1-0.1,0.2-0.2c0.3-0.3,0.6-0.6,1-1c0.1-0.1,0.1-0.1,0.2-0.2c0.1-0.1,0.1-0.1,0.2-0.2c0.3-0.3,0.5-0.5,0.8-0.8
		c0.1-0.1,0.1-0.1,0.2-0.2c0.1-0.1,0.1-0.1,0.2-0.2c0.3-0.3,0.5-0.5,0.8-0.8c0.1-0.1,0.1-0.1,0.2-0.2c0.1-0.1,0.1-0.1,0.2-0.2
		c0.3-0.3,0.5-0.5,0.8-0.8c0.1-0.1,0.1-0.1,0.2-0.2c0.1-0.1,0.1-0.1,0.2-0.2c0.3-0.3,0.5-0.5,0.8-0.8c0.1-0.1,0.1-0.1,0.2-0.2l0,0
		c0.1-0.1,0.1-0.1,0.2-0.2c0.1-0.1,0.1-0.1,0.2-0.2c0.2-0.2,0.4-0.4,0.6-0.6c0.1-0.1,0.1-0.1,0.2-0.2c0.1-0.1,0.1-0.1,0.2-0.2
		c0.1-0.1,0.1-0.1,0.2-0.2c0.1-0.1,0.1-0.1,0.2-0.2c0.2-0.2,0.4-0.4,0.6-0.6c0.1-0.1,0.1-0.1,0.2-0.2c0.1-0.1,0.1-0.1,0.2-0.2
		c0.3-0.3,0.5-0.5,0.8-0.8c0.1-0.1,0.1-0.1,0.2-0.2c0,0,0,0,0,0c0,0,0,0,0,0c0,0,0,0,0,0l0,0c0.6-0.1,1.1-0.3,1.7-0.4
		c1.1-0.2,2.3-0.9,3.3-0.6c1,0.3,1.8,1.4,2.6,2.2C37.4,43.3,37.3,43.4,37.2,43.5z M42.6,38.4c-0.1,0.1-0.1,0.1-0.2,0.2
		c-0.1,0.1-0.1,0.1-0.2,0.2c-0.3,0.3-0.5,0.5-0.8,0.8c-0.1,0.1-0.1,0.1-0.2,0.2C41.1,39.9,41,39.9,41,40c-0.3,0.3-0.6,0.6-1,1
		c-0.6,0.5-1.2,1-1.9,1.6c-0.1,0.1-0.2,0.2-0.3,0.3c-0.5-0.7-1.1-1.3-1.5-2c-0.1-0.2-0.1-0.8,0.1-0.9c2.7-2.4,5.4-4.8,8.2-7.2
		c1.4-1.2,2.8-2.5,4.5-3.9c-0.2,1.8-1.2,2.9-1.9,4.2c0,0,0,0,0,0l0,0c-0.1,0.1-0.2,0.3-0.3,0.4c0,0,0,0,0,0c0,0,0,0,0,0
		c-0.6,0.7-1.2,1.4-1.8,2.2c0,0,0,0,0,0c-0.1,0.1-0.1,0.1-0.2,0.2c0,0,0,0,0,0c0,0,0,0,0,0c0,0,0,0,0,0c0,0,0,0,0,0
		c-0.4,0.5-0.8,0.9-1.2,1.4c0,0,0,0,0,0c-0.1,0.1-0.3,0.3-0.4,0.4c0,0,0,0,0,0c-0.1,0.1-0.3,0.3-0.4,0.4
		C42.8,38.2,42.7,38.3,42.6,38.4z M51.7,26.3c0.2,0,0.4,0,0.6,0C52.2,26.3,51.9,26.3,51.7,26.3z M52.7,26.3c1-0.1,1.9-0.6,2.7-1.4
		c0,0,0,0,0,0C54.6,25.7,53.7,26.1,52.7,26.3z M56.1,24.1c-0.2,0.1-0.4,0.3-0.5,0.4c-0.1,0.1-0.1,0.2-0.2,0.4
		c-0.3-0.1-0.6-0.2-0.8-0.4c-0.8-0.8-1.6-1.6-2.3-2.3c-0.1-0.3-0.3-0.7-0.2-0.8c1.2-1.2,2.4-2.4,3.6-3.6c0.1-0.1,0.4-0.1,0.5-0.1
		c0,0.1,0.1,0.2,0.1,0.3c0.1,0.1,0.2,0.2,0.3,0.2c0,0.1,0,0.2,0,0.4c0.1,0.1,0.1,0.3,0.2,0.4c0,0,0,0,0,0c0,0.1,0.1,0.1,0.1,0.2
		c0,0.1,0.1,0.3,0.1,0.4c0,0.9,0,1.7,0,2.6c0,0.1,0,0.3-0.1,0.4c0,0.1-0.1,0.1-0.1,0.2c0,0,0,0,0,0c-0.1,0.1-0.1,0.3-0.2,0.4
		C56.4,23.4,56.3,23.8,56.1,24.1c0.2-0.1,0.4-0.2,0.5-0.3C56.5,23.9,56.3,24,56.1,24.1z"/>
	<polygon points="32.4,39.4 32.4,39.4 32.4,39.4 	"/>
	<polygon points="27.4,44.4 27.4,44.4 27.4,44.4 	"/>
	<path d="M56.2,21.7c0-0.4,0-0.8,0-1.2c-0.2-0.2-0.5-0.4-0.7-0.5c-0.1,0.2-0.2,0.5-0.3,0.7c-0.1,0.4-0.2,0.8-0.2,1.2
		c0,0.1,0,0.2,0,0.3c0.1,0.1,0.1,0.1,0.2,0.2c0.2,0,0.4,0,0.5,0c0.1-0.1,0.1-0.1,0.2-0.2c0-0.1,0-0.1,0.1-0.2c0-0.1,0.1-0.1,0.1-0.2
		C56.2,21.8,56.2,21.8,56.2,21.7z"/>
</g>
</svg>
