<?xml version="1.0" encoding="utf-8"?>
<!-- Generator: Adobe Illustrator 23.0.3, SVG Export Plug-In . SVG Version: 6.00 Build 0)  -->
<svg version="1.1" id="Layer_1" xmlns="http://www.w3.org/2000/svg" xmlns:xlink="http://www.w3.org/1999/xlink" x="0px" y="0px"
	 viewBox="0 0 72 72" style="enable-background:new 0 0 72 72;" xml:space="preserve">
<g>
	<path d="M30.4,44c-0.6-0.1-1.1-0.1-1.7-0.3c-0.7-0.2-1.5-0.5-2.2-0.8c-0.2-0.1-0.3-0.1-0.4,0.1c-1.8,2-3.5,4-5.3,6
		c-0.5,0.6-1,1.1-1.6,1.5c-1.6,1.2-3.4,1.2-5.1,0c-1.1-0.7-1.9-1.7-2.6-2.7c-1.4-2.1-2.5-4.4-3.4-6.7c-1.6-4.1-2.8-8.4-3.8-12.7
		c-0.6-2.5-1-5.1-1.5-7.6c-0.3-1.8-0.3-3.6-0.1-5.4c0.1-1.8,0.5-3.6,1.1-5.3C5.6,6.1,8.6,3.6,13,2.6c2.4-0.5,4.7-0.5,7.1-0.3
		c2.9,0.3,5.8,1,8.6,2c0.1,0,0.3,0,0.4-0.1c2.1-1.4,4.5-2.1,7-2.2c2.2-0.2,4.4,0.1,6.5,0.6c0.1,0,0.3,0,0.4,0c2-0.7,4-1,6.1-1.2
		c1.8-0.2,3.7-0.2,5.5,0.1c5.3,0.7,9.7,3,13,7.2c0.7,0.9,1,2,1.2,3.2c0.3,2,0.2,4-0.2,6c-1,6.8-3.4,13.1-6.5,19.2
		c-1,1.9-2.1,3.7-3.2,5.6c0.1,0.1,0.3,0.2,0.5,0.2c1,0.4,2.1,0.4,3.1,0.3c1.4-0.2,2.8-0.4,4.1-0.6c0.4,0,0.8-0.1,1.1,0
		c1.2,0.1,1.8,1.2,1.2,2.3c-0.4,0.7-1,1.2-1.6,1.7c-1.9,1.5-4.1,2.4-6.5,2.8c-1.4,0.2-2.9,0.3-4.3,0.2c-0.5-0.1-1-0.2-1.5-0.2
		c-0.1,0.8-0.2,1.7-0.3,2.5c-0.3,2.4-0.6,4.8-0.9,7.2c-0.2,1.4-0.4,2.8-0.7,4.2c-0.3,1.5-0.9,2.8-2,3.9c-1,1.1-2.3,1.8-3.7,2.3
		c-1.5,0.5-3.1,0.9-4.7,0.9c-2.6,0-4.6-1.1-5.9-3.3c-1-1.6-1.5-3.4-1.6-5.2c-0.4-3.8-0.4-7.6-0.4-11.4c0-0.1,0-0.2,0-0.3
		c-0.3,0.2-0.5,0.4-0.7,0.5c-2,1.5-4.3,2-6.8,1.8c-1.3-0.1-2.6-0.3-3.8-1c-0.4-0.2-0.8-0.5-1.2-0.9c-0.7-0.8-0.6-1.9,0.3-2.5
		c0.7-0.5,1.5-0.7,2.4-1c0.9-0.2,1.8-0.5,2.7-0.7c0.5-0.2,1-0.5,1.3-0.9c0.4-0.4,0.7-0.9,1.1-1.3C30.3,44.1,30.3,44.1,30.4,44z
		 M32.6,42.3c0.3,0,0.6,0,0.9,0c2.5,0.3,3.6,2.6,3.6,4.1c0,0.8,0,1.6-0.1,2.4c0,4.3,0,8.6,0.4,12.9c0.1,1.4,0.5,2.7,1.2,3.9
		c1,1.7,2.4,2.6,4.4,2.6c1.8,0,3.5-0.5,5.1-1.3c1.3-0.6,2.2-1.6,2.7-2.9c0.3-0.9,0.6-1.8,0.7-2.7c0.3-1.4,0.4-2.9,0.6-4.3
		c0.2-1.1,0.3-2.3,0.4-3.4c0.1-1.1,0.3-2.1,0.4-3.2c0.1-1.1,0.2-2.2,0.3-3.3c0-0.5,0-1.1,0.1-1.6c0.2-1.5,1-2.5,2.4-3.1
		c0.2-0.1,0.3-0.1,0.5-0.2c-0.1-0.1-0.2-0.2-0.3-0.4c-0.6-0.9-1.3-1.8-1.9-2.8c-0.7-1.2-1.3-2.5-2-3.7C51,33,49.7,30.6,48.9,28
		c-0.5-1.6-0.9-3.2-0.7-4.9c0.2-2.3,1.5-3.9,3.7-4.5c1.4-0.4,2.9-0.5,4.4-0.4c0.2,0,0.3,0,0.5,0c-0.1-0.2-0.1-0.3-0.2-0.5
		c-1.2-3-2.9-5.7-5.2-7.9c-4.7-4.6-10.3-6.4-16.7-5.5c-2.8,0.4-5,1.8-6.9,3.9c-1.4,1.6-2.3,3.4-3,5.4c-0.6,1.7-1,3.5-1.2,5.4
		c-0.1,0.5-0.1,0.9-0.1,1.4c0.1,0,0.2-0.1,0.2-0.1c1.5-0.8,3.1-1.4,4.8-1.6c1.2-0.2,2.3-0.2,3.4,0.2c1.8,0.6,3,1.9,3.4,3.8
		c0.3,1.4,0.5,2.8,0.7,4.2c0.2,1.5,0.2,3,0.1,4.6c-0.1,1.9-0.6,3.7-1.3,5.5c-0.6,1.3-1.1,2.7-1.6,4C32.9,41.3,32.8,41.8,32.6,42.3z
		 M27,6c-0.1,0-0.1,0-0.1,0c-2.6-0.8-5.3-1.4-8-1.6c-1.9-0.1-3.8-0.1-5.6,0.4c-3.5,0.8-6,2.9-7.3,6.2c-0.6,1.6-0.9,3.3-1,5
		c-0.1,1.8-0.1,3.6,0.2,5.3c0.3,1.8,0.6,3.5,1,5.3c1,4.6,2.2,9,3.8,13.4c0.8,2.2,1.7,4.3,3,6.3c0.6,1,1.3,1.9,2.2,2.6
		c1,0.8,2.1,0.8,3.1-0.1c0.3-0.2,0.5-0.4,0.7-0.7c1.8-2.1,3.7-4.2,5.5-6.2c0-0.1,0.1-0.1,0.1-0.2c-0.1-0.1-0.1-0.1-0.2-0.2
		c-2.3-2.1-3.4-4.8-3.4-7.9c0-1.1,0.2-2.1,0.3-3.2c0.1-1.3,0.1-2.6,0.1-4c0-2.1-0.3-4.2,0-6.3c0.2-1.8,0.4-3.5,0.9-5.2
		c0.7-2.6,1.7-5,3.2-7.1C25.9,7.2,26.5,6.6,27,6z M57.8,40.5c0.1-0.1,0.1-0.2,0.2-0.3c4.1-6.7,7.2-13.9,8.6-21.7
		c0.4-2.1,0.6-4.2,0.3-6.3c-0.1-0.8-0.3-1.7-0.8-2.3c-0.3-0.4-0.6-0.8-0.9-1.1c-3.4-3.6-7.6-5.2-12.4-5.4c-1.7-0.1-3.4,0-5.1,0.3
		c-0.4,0.1-0.8,0.1-1.2,0.2C46.5,3.9,46.6,4,46.7,4c0.9,0.5,1.9,1,2.7,1.5c3.9,2.6,6.8,6.2,8.7,10.5c0.6,1.4,1.2,2.8,1,4.4
		c-0.1,0.9-0.2,1.9-0.3,2.8c-0.1,1-0.3,1.9-0.4,2.9c-0.1,1.5,0.1,3,0.2,4.5c0.2,1.5,0.4,3,0.2,4.6c-0.1,1.7-0.6,3.3-1.4,4.7
		C57.5,40.1,57.5,40.3,57.8,40.5z M23.5,27.1C23.5,27.1,23.5,27.1,23.5,27.1c-0.1,0.8-0.1,1.6-0.1,2.4c0,0.8-0.1,1.5-0.2,2.3
		c-0.1,1.2-0.3,2.4,0,3.6c0.4,2.3,1.6,4.1,3.5,5.4c1.1,0.7,2.3,1.1,3.6,1.2c0.1,0,0.3,0,0.3-0.2c0.5-1.9,1.3-3.7,2.1-5.5
		c0.8-1.8,1.2-3.6,1.3-5.5c0.1-2.5-0.2-5-0.8-7.4c-0.4-1.7-1.4-2.6-3.2-2.6c-1,0-2,0.2-3,0.5c-1.2,0.4-2.4,0.9-3.5,1.7
		c-0.1,0.1-0.2,0.2-0.2,0.4C23.4,24.5,23.5,25.8,23.5,27.1z M57.1,20.5c-1.2-0.2-2.3-0.2-3.4-0.1c-0.5,0.1-1,0.2-1.4,0.4
		c-1.3,0.5-1.9,1.5-2,3c0,1.2,0.2,2.3,0.6,3.4c0.6,2.1,1.6,4.1,2.6,6.1c0.8,1.6,1.7,3.2,2.5,4.8c0,0.1,0.1,0.1,0.1,0.2
		c0.1-0.1,0.1-0.2,0.2-0.4c0.5-1.2,0.7-2.4,0.7-3.6c-0.1-1.5-0.2-3-0.4-4.5c-0.1-1-0.2-2-0.2-2.9c0.1-1.4,0.3-2.8,0.5-4.2
		C57,21.9,57,21.2,57.1,20.5z M24.4,49.4c0,0,0,0.1,0,0.1c0.2,0.1,0.4,0.2,0.6,0.3c1.6,0.6,3.2,0.7,4.8,0.5c2.1-0.3,3.7-1.4,4.9-3.1
		c0.1-0.1,0.2-0.3,0.2-0.4c0.2-0.8-0.1-1.5-0.8-2c-0.8-0.6-1.1-0.5-1.7,0.1c-0.1,0.1-0.1,0.2-0.2,0.2c-0.4,0.5-0.9,1-1.3,1.6
		c-0.6,0.8-1.4,1.4-2.3,1.7c-0.8,0.3-1.6,0.5-2.5,0.7C25.6,49.2,25,49.3,24.4,49.4z M66.5,44.8C66.5,44.8,66.5,44.7,66.5,44.8
		c-0.1-0.1-0.2-0.1-0.2-0.1c-1.8,0.4-3.6,0.6-5.5,0.5c-1-0.1-1.9-0.2-2.7-0.8c-0.4-0.3-0.8-0.3-1.2-0.1c-0.1,0-0.2,0.1-0.3,0.1
		c-0.5,0.2-0.9,0.5-1,1c-0.1,0.5-0.1,0.9-0.2,1.4c0,0.2,0.1,0.3,0.3,0.4c0.5,0.1,1.1,0.3,1.6,0.3c1,0,2.1-0.1,3.1-0.2
		c1.9-0.2,3.7-0.9,5.3-2C66.1,45.2,66.3,45,66.5,44.8z"/>
	<path d="M30.6,24.3c-0.8,0-1.7-0.7-1.9-1.4c-0.2-0.4,0-0.8,0.5-1c0.5-0.2,1.1-0.2,1.6-0.1c0.4,0.1,0.8,0.2,1.2,0.4
		c0.6,0.3,0.7,0.9,0.2,1.4C31.7,24,31.1,24.3,30.6,24.3z"/>
	<path d="M53.4,23.4c-0.5,0-1-0.2-1.4-0.6c-0.4-0.4-0.4-0.9,0.2-1.1c0.4-0.2,1-0.3,1.4-0.4c0.4,0,0.8,0,1.2,0.1
		c0.4,0.1,0.5,0.4,0.4,0.9C54.9,22.9,54.1,23.4,53.4,23.4z"/>
</g>
</svg>
