<?xml version="1.0" encoding="utf-8"?>
<!-- Generator: Adobe Illustrator 23.0.3, SVG Export Plug-In . SVG Version: 6.00 Build 0)  -->
<svg version="1.1" id="technicalSkills" xmlns="http://www.w3.org/2000/svg" xmlns:xlink="http://www.w3.org/1999/xlink" x="0px"
	 y="0px" viewBox="0 0 280 216" style="enable-background:new 0 0 280 216;" xml:space="preserve">
<style type="text/css">
	.st0{fill:#FFFFFF;}
</style>
<title>projects</title>
<g>
	<g>
		<path class="st0" d="M228.6,84.3c-8.1,0-9.2,4.8-9.2,9.1c0,3.4,0.5,6.9,0.9,10.3c0.5,3.4,0.9,6.8,0.9,10.2
			c0,11.3-6.8,16.1-16.5,16.1h-2.4v-6.8h2.1c6.7,0,9-3.9,9-10.6c0-2.8-0.3-5.8-0.8-8.7c-0.5-3.1-0.8-6-0.8-9.4
			c-0.1-7.9,3.1-11.8,8.2-13.3v-0.3c-5.1-1.4-8.3-5.5-8.2-13.4c0-3.3,0.3-6.4,0.8-9.4c0.5-3.1,0.8-5.9,0.8-8.9
			c0-6.9-2.6-10.7-9-10.7h-2.1v-6.8h2.4c9.5,0,16.5,4.4,16.5,16.9c0,3.3-0.5,6.8-0.9,10.1c-0.5,3.3-0.9,6.7-0.9,10
			c0,3.8,1.1,9.1,9.2,9.1V84.3z"/>
	</g>
	<g>
		<path class="st0" d="M50.8,77.7c8.1,0,9.2-4.8,9.2-9.1c0-3.4-0.5-6.9-0.9-10.3s-0.9-6.8-0.9-10.2c0-11.3,6.8-16.1,16.5-16.1h2.4
			v6.8H75c-6.7,0-9,3.9-9,10.6c0,2.8,0.3,5.8,0.8,8.7c0.5,3.1,0.8,6,0.8,9.4c0.1,7.9-3.1,11.8-8.2,13.3v0.3
			c5.1,1.4,8.3,5.5,8.2,13.4c0,3.3-0.3,6.4-0.8,9.4c-0.5,3.1-0.8,5.9-0.8,8.9c0,6.9,2.6,10.7,9,10.7h2.1v6.8h-2.4
			c-9.5,0-16.5-4.4-16.5-16.9c0-3.3,0.5-6.8,0.9-10.1c0.5-3.3,0.9-6.7,0.9-10c0-3.8-1.1-9.1-9.2-9.1V77.7z"/>
	</g>
	<path class="st0" d="M253.4,77.4c0,20.1,0.1,40.1,0,60.2c0,7.4,2.2,11,6,20.1c7.2,17,12,32.4,17,46.9c1.9,3.3,0,6.8-3.6,6.8
		c-8.4,0-16.8-0.2-25.3-0.2c-7.8,0-15.7,0.1-23.5,0.1c-31.5,0-63.1,0-94.6-0.1c-40.7-0.1-81.4-0.2-122.1-0.2c-1.5,0-2.7-0.3-3.5-1.7
		c-0.8-1.6-0.2-2.9,0.6-4.3c5.7-11.9,15-39.1,19.5-50.3c2-4.9,4.1-9.1,4.1-14.6c0.3-35.4,0.9-70.9,1.4-106.3
		c0.1-7.6,0.2-15.1,0.4-22.7c0-3.3,1.7-5.8,4.6-6.8c1.4-0.5,2.9-0.7,4.3-0.7c8.7-0.1,17.5-0.1,26.2,0c3.8,0,7.7,0.3,11.5,0.3
		c26.2-0.1,52.5-0.2,78.7-0.3c29.6-0.1,59.2-0.1,88.8-0.1c2.2,0,4.3,0,6.3,1.6c1.8,1.4,2.7,3.3,3,5.5c0.3,2.1,0.3,4.3,0.3,6.4
		C253.5,37.2,253.5,57.3,253.4,77.4C253.5,77.4,253.5,77.4,253.4,77.4z M38.1,142.6c68.6,0,137,0,205.3,0c0-42.3,0-84.4,0-126.7
		c-67.9,0-135.7,0-203.7,0C39.2,58.2,38.7,100.3,38.1,142.6z M173,152c22.6,0,45.1,0,67.7,0c1.1,0,2.6,0.4,2.7-1.4
		c0.1-1.9-1.5-1.6-2.7-1.6c-48.6,0-97.3,0-145.9,0c-17.7,0-35.5,0-53.2,0c-0.6,0-1.2-0.1-1.7,0.2c-0.5,0.3-1,1-1,1.5
		c0,0.5,0.7,1,1.1,1.3c0.3,0.2,0.8,0.1,1.2,0.1c21.4,0,42.7,0,64.1,0C127.9,152,150.5,152,173,152z M126.3,205.4
		c9.5,0,18.8,0,28.3,0c-1-3.6-1.9-7.1-2.8-10.7c-7.3,0-14.6,0-21.8,0c-0.4,0-1,0.3-1,0.6C128,198.7,127.2,202,126.3,205.4z
		 M34.4,156.8C34.4,156.8,34.4,156.8,34.4,156.8c-1.6,0-3.1,0-4.7,0c-1.5,0-2.5,1.1-2.4,2.3c0.2,1.4,1,2.2,2.3,2.2
		c3.1,0,6.1,0,9.2,0c1.3,0,2.2-0.7,2.4-2.2c0.1-1.3-0.8-2.3-2.3-2.3C37.4,156.7,35.9,156.8,34.4,156.8z M143.3,8.9
		c0-1.6-1.3-3.1-2.8-3.1c-1.5,0-2.8,1.4-2.8,3c0,1.7,1.2,3.2,2.8,3.1C142,11.9,143.3,10.5,143.3,8.9z"/>
	<path class="st0" d="M127.5,90c0.2-0.9,0.3-1.6,0.5-2.2c6.4-18.2,12.8-36.4,19.2-54.6c0.8-2.1,2.3-3.3,4-3c2.5,0.4,3.7,2.9,2.8,5.7
		c-2,5.9-4.1,11.8-6.2,17.7c-4.3,12.3-8.6,24.6-12.9,36.9c-1.2,3.3-4.3,4.3-6.3,1.9C128.1,91.7,127.8,90.7,127.5,90z"/>
	<path class="st0" d="M116.2,115c-8.7,0-17.4,0-26,0c-1,0-2.1-0.2-3-0.6c-1.2-0.5-1.9-1.5-2-3c0-1.5,0.7-2.6,1.9-3.2
		c0.9-0.4,1.9-0.6,2.9-0.6c17.6,0,35.1,0,52.7,0c1,0,2.2,0.1,3,0.7c0.9,0.7,1.7,1.9,1.9,3c0.3,1.4-0.7,2.6-1.9,3.1
		c-0.9,0.4-2,0.6-3,0.6C133.7,115,124.9,115,116.2,115z"/>
	<path class="st0" d="M172.3,62.7c-3.5-5.5-6.9-10.9-10.4-16.3c-0.2-0.4-0.5-0.7-0.7-1.1c-1.2-2.1-0.8-4.3,0.8-5.6
		c1.6-1.3,4-0.8,5.2,1.2c3.3,5.1,6.6,10.3,9.9,15.5c1,1.6,2,3.1,3,4.8c1.4,2.4,1.1,4.4-1,6c-6.1,4.6-12.3,9.2-18.5,13.7
		c-1.9,1.4-4.1,1-5.3-0.8c-1.2-1.9-0.8-4.1,1.1-5.6c4.9-3.7,9.9-7.4,14.8-11.1C171.7,63.2,171.9,63,172.3,62.7z"/>
	<path class="st0" d="M108.2,61.5c3.8,5.7,7.4,11.3,11.1,16.9c1,1.5,1.2,3,0.2,4.6c-0.8,1.4-2,2.1-3.5,1.7c-0.9-0.3-2-0.9-2.6-1.7
		c-4.5-6.7-8.9-13.4-13.3-20.2c-1.3-2-0.9-4.1,0.9-5.5c6.3-4.9,12.6-9.7,18.9-14.5c1.7-1.3,4.1-0.8,5.2,0.9c1.1,1.8,0.8,4-0.9,5.4
		c-2.9,2.3-5.9,4.5-8.8,6.8C113,57.8,110.7,59.6,108.2,61.5z"/>
	<path class="st0" d="M102.8,121.9c4.4,0,8.8,0,13.2,0c2.4,0,4,1.5,4,3.7c0,2.2-1.6,3.7-3.9,3.7c-8.8,0-17.5,0-26.3,0
		c-0.6,0-1.1-0.1-1.7-0.2c-1.7-0.4-2.9-1.9-3-3.5c0-1.7,1.2-3.2,3-3.6c0.7-0.2,1.3-0.1,2-0.1C94.3,121.9,98.6,121.9,102.8,121.9z"/>
	<path class="st0" d="M140.9,121.9c4.4,0,8.8,0,13.2,0c2.4,0,4,1.5,4,3.7c0,2.2-1.6,3.7-3.9,3.7c-8.8,0-17.5,0-26.3,0
		c-0.6,0-1.1-0.1-1.7-0.2c-1.7-0.4-2.9-1.9-3-3.5c0-1.7,1.2-3.2,3-3.6c0.7-0.2,1.3-0.1,2-0.1C132.5,121.9,136.7,121.9,140.9,121.9z"
		/>
</g>
</svg>
