<?xml version="1.0" encoding="utf-8"?>
<!-- Generator: Adobe Illustrator 23.0.3, SVG Export Plug-In . SVG Version: 6.00 Build 0)  -->
<svg version="1.1" id="Layer_1" xmlns="http://www.w3.org/2000/svg" xmlns:xlink="http://www.w3.org/1999/xlink" x="0px" y="0px"
	 viewBox="0 0 72 72" style="enable-background:new 0 0 72 72;" xml:space="preserve">
<g>
	<path d="M14.1,56.1c0.3-2.1,0.7-4.6,1.1-6.9c0.2-1,0-1.4-1-1.7c-3.4-1.1-6.8-2.4-9.7-4.8C2.6,41.2,1,39.5,0.7,37
		c-0.5-3.3,1.3-5.8,3.7-7.7c2.8-2.2,6.1-3.6,9.5-4.7c1.2-0.4,1.4-0.9,1.2-2c-0.8-3.3-1.2-6.8-0.7-10.3c0.2-1.4,0.6-2.8,1.2-4.1
		c1.8-3.6,5.5-4.8,9.6-3.2c3.3,1.2,6.2,3.2,8.8,5.6c2.2,1.9,1.5,1.8,3.6,0c2.5-2.2,5.3-4.3,8.5-5.4c5.8-2.2,10.4,0.7,11.3,6.9
		c0.5,3.7,0,7.4-0.8,11c-0.2,0.9,0.1,1.1,0.8,1.4c4,1.3,7.9,2.7,10.9,5.8c3.7,3.6,3.6,8.1-0.2,11.7c-2.9,2.7-6.6,4.3-10.3,5.4
		c-1.2,0.4-1.4,0.8-1.2,2c0.8,3.2,1.1,6.5,0.8,9.8c-0.2,2.4-0.9,4.8-2.8,6.5c-2.3,2.1-5,2.2-7.8,1.3c-3.6-1.2-6.7-3.4-9.5-6
		c-1.5-1.3-1.5-1.3-3,0c-2.8,2.5-5.9,4.8-9.6,6c-5.1,1.6-9.3-0.9-10.2-6.1C14.4,59.4,14.3,57.9,14.1,56.1z M36,47.4L36,47.4
		c1.9,0,3.7,0,5.7-0.1c0.5,0,1.2-0.4,1.4-0.9c1.9-3.1,3.7-6.3,5.6-9.5c0.3-0.5,0.3-1.3,0.1-1.7c-1.8-3.3-3.7-6.6-5.7-9.8
		c-0.2-0.4-0.8-0.7-1.2-0.7c-3.9-0.1-7.7-0.1-11.6,0c-0.4,0-1.1,0.4-1.3,0.8c-1.9,3.1-3.7,6.4-5.5,9.6c-0.3,0.5-0.3,1.3,0,1.8
		c1.8,3.2,3.6,6.5,5.6,9.6c0.2,0.4,0.9,0.7,1.4,0.8C32.2,47.4,34,47.4,36,47.4z M16.9,56.9c0.3,1.4,0.6,3.4,1.3,5.4
		c0.6,1.6,2,2.4,3.7,2.3c1-0.1,2-0.2,2.9-0.6c3.2-1.2,5.9-3.4,8.4-5.7c0.6-0.6,0.4-1,0-1.4c-1.6-2-3.2-4.1-4.9-6
		c-0.3-0.4-0.8-0.8-1.3-0.8c-2.6-0.4-5.2-0.7-7.8-1.2c-0.9-0.1-1.2,0.2-1.3,1C17.6,51.9,17.3,54.2,16.9,56.9z M55,15.1
		c-0.1,0-0.1,0-0.2,0c-0.1-0.9-0.1-1.9-0.2-2.8c-0.7-4.5-3.3-6-7.5-4.4c-3.2,1.2-5.9,3.3-8.4,5.8c-0.6,0.5-0.5,0.9,0,1.5
		c1.5,1.9,3.1,3.7,4.6,5.8c0.5,0.7,1.2,1.1,2,1.2c2.4,0.3,4.9,0.7,7.3,1.1c0.8,0.2,1.1-0.1,1.3-0.8C54.3,19.9,54.7,17.6,55,15.1z
		 M16.9,15c0.4,2.5,0.8,4.9,1.1,7.3c0.1,0.6,0.3,1,1,0.8c2.6-0.5,5.4-0.8,8-1.3c0.4-0.1,0.9-0.4,1.2-0.7c1.7-2,3.3-4.2,5-6.3
		c0.2-0.3,0.1-1-0.1-1.2c-0.6-0.7-1.4-1.3-2.1-1.9c-2.5-2-5.1-4-8.4-4.5c-2.2-0.3-4.1,0.5-4.8,2.7C17.4,11.7,17.2,13.4,16.9,15z
		 M55,57.1c-0.3-2.5-0.7-5-1-7.3c-0.1-0.8-0.5-1.1-1.4-1c-2.5,0.5-5.1,0.7-7.6,1.2c-0.5,0.1-1,0.4-1.3,0.8c-1.7,2-3.3,4.1-5,6.1
		c-0.4,0.5-0.5,0.9,0,1.4c0.9,0.8,1.8,1.7,2.8,2.4c2.1,1.6,4.4,3.1,7.1,3.7c2.6,0.6,4.5-0.3,5.5-2.7C54.6,60.2,54.7,58.6,55,57.1z
		 M68.4,36c0-2.2-1.3-3.5-2.9-4.8c-2.5-1.9-5.5-3.1-8.5-4.1c-0.8-0.3-1.2-0.1-1.5,0.7c-0.9,2.4-1.8,4.9-2.7,7.2
		c-0.2,0.5-0.2,1.1,0,1.5c0.9,2.4,1.8,5,2.8,7.4c0.1,0.3,0.9,0.7,1.2,0.6c3.6-1.1,7.3-2.4,10.1-5.3C67.7,38.5,68.4,37.4,68.4,36z
		 M3.3,36c0.5,1,0.8,2.1,1.5,2.9c2.8,3.2,6.8,4.6,10.7,5.8c0.2,0.1,0.8-0.3,0.9-0.7c1-2.4,2-5,2.9-7.4c0.1-0.4,0.2-0.9,0-1.3
		c-0.9-2.5-1.9-5.2-2.9-7.7c-0.1-0.3-0.7-0.6-1-0.5c-3.6,1-7,2.4-9.8,4.9C4.5,33.1,3.6,34.3,3.3,36z M50.9,39.9
		c-0.1,0-0.3-0.1-0.4-0.1c-1.3,2.2-2.5,4.5-3.9,6.7c0.1,0.1,0.1,0.2,0.2,0.3c2-0.3,4-0.7,6.2-1.1C52.2,43.6,51.5,41.8,50.9,39.9z
		 M32.3,50.4c-0.1,0.1-0.2,0.2-0.3,0.3c1.3,1.5,2.5,3,4,4.8c1.5-1.7,2.9-3.1,4.2-5.1C37.2,50.4,34.7,50.4,32.3,50.4z M50.4,32.1
		c0.1,0,0.3,0,0.4,0c0.6-1.8,1.3-3.5,1.9-5.4c0.1-0.2-0.2-0.6-0.4-0.7c-0.5-0.2-1.1-0.3-1.7-0.4c-1.3-0.2-2.5-0.3-4.2-0.5
		C47.8,27.6,49.1,29.8,50.4,32.1z M31.8,21.3c2.9,0,5.5,0,8.4,0c-1.4-1.6-2.5-3-3.7-4.4c-0.2-0.2-0.8-0.2-0.9-0.1
		C34.3,18.3,33.1,19.7,31.8,21.3z M21.2,32.1c0.1,0,0.3,0,0.4,0c1.3-2.2,2.5-4.5,3.9-6.7c-0.1-0.1-0.1-0.2-0.2-0.3
		c-1.8,0.3-3.6,0.6-5.5,1c-0.2,0-0.5,0.5-0.5,0.7C19.9,28.5,20.6,30.2,21.2,32.1z M25.2,46.9c0.1-0.1,0.1-0.2,0.2-0.3
		c-1.3-2.2-2.5-4.5-3.9-6.7c-0.1,0-0.2,0-0.4,0c-0.6,1.7-1.3,3.4-1.8,5.3c-0.1,0.2,0.3,0.7,0.5,0.8C21.6,46.3,23.4,46.6,25.2,46.9z"
		/>
	<path d="M42.2,36c0,3.3-2.7,6.2-6.2,6.2c-3.4,0-6.3-2.7-6.3-6.4c0-3.3,2.7-6.1,6.1-6.2C39.5,29.6,42.1,32.3,42.2,36z"/>
</g>
</svg>
