<?xml version="1.0" encoding="utf-8"?>
<!-- Generator: Adobe Illustrator 23.0.3, SVG Export Plug-In . SVG Version: 6.00 Build 0)  -->
<svg version="1.1" id="Layer_1" xmlns="http://www.w3.org/2000/svg" xmlns:xlink="http://www.w3.org/1999/xlink" x="0px" y="0px"
	 viewBox="0 0 72 72" style="enable-background:new 0 0 72 72;" xml:space="preserve">
<g>
	<path d="M38.2,3c0.1,0.1,0.1,0.2,0.2,0.2c7.1,1.5,11.2,6.2,13.7,12.6c1,2.5,1.5,5.1,1.7,7.8c0,0.2,0,0.4,0,0.6
		c-1.4-0.4-2.7-0.8-4-1.2c-0.2,0-0.3-0.3-0.3-0.5c-0.5-3.9-1.9-7.4-4.2-10.6c-1.8-2.5-4.2-4.2-7.3-4.7c-2.9-0.4-5.6,0.3-8.2,1.5
		c-3.2,1.4-5.1,4.1-6.7,7.1c-1.8,3.5-2.6,7.2-2.7,11.1c-0.2,6,1.1,11.6,4,16.8c0.3,0.6,0.7,0.9,1.4,0.8c2.5,0,4.5,1.8,4.8,4.4
		c0.3,2.3-1.3,4.6-3.6,5.1c-2,0.5-3.7-0.1-5-1.6c-1.3-1.5-1.5-3.3-0.7-5.1c0.1-0.2,0-0.6-0.1-0.8c-2.2-3.9-3.8-8.1-4.6-12.6
		c-1.3-7.5-0.4-14.7,3.4-21.3c2.7-4.7,6.7-8,12.1-9.3c0.4-0.1,0.9-0.2,1.3-0.3c0,0,0,0,0,0c0,0-0.1-0.1-0.1-0.1C35,3,36.6,3,38.2,3z
		"/>
	<path d="M70.6,54.3c-0.1,0.1-0.2,0.1-0.2,0.2c-1.3,6.8-5.9,10.4-12,12.3c-5.3,1.7-10.5,1-15.6-1c-0.5-0.2-1.1-0.5-1.7-0.7
		c1.3-1,2.5-2,3.7-3c0.1-0.1,0.5,0,0.7,0.1c3,1.1,6,1.7,9.2,1.5c5.9-0.3,10.9-4.9,11.7-10.7c0.3-2,0-3.9-0.7-5.8
		c-1.7-4.9-4.8-8.7-9-11.5c-6-4.1-12.7-6.1-20.1-6c-0.4,0-0.5,0.2-0.7,0.5c-1,1.7-3,2.7-4.9,2.4c-2.1-0.3-3.6-1.8-4.1-3.8
		c-0.5-2.2,0.8-4.5,2.9-5.4c2.1-0.9,4.6-0.2,5.8,1.7c0.3,0.4,0.5,0.5,1,0.5c6.2-0.1,12.1,1,17.7,3.8c5.6,2.8,10.1,6.8,13.3,12.1
		c1.3,2.2,2.1,4.6,2.6,7.1c0,0.2,0.1,0.3,0.2,0.5c0,0,0,0,0,0c0,0,0,0,0,0C70.6,50.7,70.6,52.5,70.6,54.3z"/>
	<path d="M2.5,48.2c0.1-0.1,0.2-0.2,0.2-0.3c1.1-6.2,4.6-10.8,9.6-14.5c0.1,0,0.1-0.1,0.2-0.1c0.4,1.4,0.7,2.7,1.1,4
		c0,0.2-0.2,0.5-0.3,0.6c-2.7,2.2-4.9,4.9-6.2,8.2C4.8,52,7.2,58.7,12.6,61.5c1.8,1,3.8,1.4,5.9,1.6c4.4,0.3,8.6-0.5,12.5-2.5
		c4.7-2.4,8.9-5.4,12.1-9.6c0.9-1.2,1.6-2.5,2.4-3.7c0.2-0.3,0.2-0.6-0.1-0.9c-1.3-1.6-1.4-3.7-0.4-5.5c1-1.8,3-2.7,5-2.3
		c1.9,0.3,3.5,1.8,3.9,3.8c0.6,2.5-1,5.1-3.6,5.7c-0.5,0.1-0.7,0.3-1,0.8c-5,9.7-13,15.6-23.7,17.9c-4.5,1-8.8,0.9-13.1-0.7
		C7,63.9,3.7,59.9,2.7,54.1c0-0.2-0.1-0.3-0.1-0.5c0,0,0,0,0,0c0,0-0.1,0.1-0.1,0.1C2.5,51.8,2.5,50,2.5,48.2z"/>
</g>
</svg>
