<?xml version="1.0" encoding="utf-8"?>
<!-- Generator: Adobe Illustrator 23.0.3, SVG Export Plug-In . SVG Version: 6.00 Build 0)  -->
<svg version="1.1" id="Layer_1" xmlns="http://www.w3.org/2000/svg" xmlns:xlink="http://www.w3.org/1999/xlink" x="0px" y="0px"
	 viewBox="0 0 72 72" style="enable-background:new 0 0 72 72;" xml:space="preserve">
<path d="M44.7,62c0.3-0.3,0.6-0.6,1-0.9c2.5-1.9,3-4.5,1.2-7.2c-1.8-2.6-4.5-3.6-7.4-4.2c-2.5-0.4-5-0.5-7.3,0.2
	c0.1,2.6,0.4,5.1,0.2,7.5c-0.7,8.3-8.7,14.5-16.7,13.3c-2.6-0.4-4.3-2.3-4.6-5.1c-0.3-3.2,0.7-5.9,2.8-8.2c3.2-3.4,7.2-5.8,11.2-8
	c0.2-0.1,0.5-0.3,1-0.5c-0.8-0.6-1.6-1.2-2.3-1.8c-3.5-2.7-7.1-5.3-10.5-8c-1.2-1-2.2-2.4-3.2-3.7c-2.6-3.5-2.6-7.3-0.7-11.1
	c2.5-4.9,6.3-8.7,10.7-11.8c7.3-5.2,15.3-9.1,24.1-10.7c4.7-0.9,9.4-0.9,13.9,0.6C66,5,68.8,11.4,65.3,18.8
	c-3.3,7-8.8,11.2-16.2,13.2c-4.2,1.2-8.4,1.6-12.7,0.9c-2.2-0.4-4.2-1.4-5.7-3.1c-0.5-0.6-0.9-1.4-1.2-2.1c-0.1-0.2,0-0.6,0.2-0.8
	c0.1-0.1,0.6-0.1,0.7,0.1c3.3,3.3,7.3,3.3,11.4,2.6c6.9-1.2,12.8-4.2,17.2-9.9c1.5-2,2.6-4.3,2.5-6.9c0-1.9-0.9-3.3-2.5-4.3
	c-2.2-1.4-4.7-1.8-7.3-1.8c-7.1-0.1-13.5,2.2-19.6,5.4c-4.5,2.3-8.8,4.9-12.4,8.6c-1.2,1.2-2.3,2.6-3.1,4.1
	c-2.5,4.2-2.1,8.4,1.2,11.9c1.8,1.9,3.9,3.5,5.9,5.2c1.8,1.5,3.6,3.1,5.4,4.5c0.4,0.3,1.2,0.5,1.8,0.3c3.9-0.7,7.8-1.1,11.6,0.3
	c3.7,1.4,6.4,3.8,7.2,7.9c0.6,2.9-0.9,5.8-3.6,7c-0.4,0.2-0.9,0.2-1.4,0.2C44.9,62.2,44.8,62.1,44.7,62z M28.4,51.5
	c-3.8,2-7.1,4-9.5,7.1c-0.9,1.2-1.6,2.6-2.1,4c-0.3,0.9-0.2,2.4,0.4,3c0.6,0.6,2.1,0.7,3,0.4c4.4-1.3,7.1-4.4,8.1-8.9
	C28.7,55.4,28.4,53.6,28.4,51.5z"/>
</svg>
