<?xml version="1.0" encoding="utf-8"?>
<!-- Generator: Adobe Illustrator 23.0.3, SVG Export Plug-In . SVG Version: 6.00 Build 0)  -->
<svg version="1.1" id="technicalSkills" xmlns="http://www.w3.org/2000/svg" xmlns:xlink="http://www.w3.org/1999/xlink" x="0px"
	 y="0px" viewBox="0 0 280 216" style="enable-background:new 0 0 280 216;" xml:space="preserve">
<title>projects</title>
<path d="M90.2,25C90,30.5,90,35.3,89.5,40.1c-0.4,3.6,1.3,5.6,4.6,7.6c13.7,7.9,13.7,8,26.4-1.4c1.5-1.1,2.4-3.3,2.5-5.1
	c0.2-5.2-0.1-10.4-0.3-16.1c22.3,10.2,25.2,36.6,6.2,49.9c-4.5,3.1-5.8,6.2-5.8,10.9c0.2,32.2,0.1,64.4,0.1,96.6
	c0,6.6-2.6,11.8-9.6,14.7c-6.2,2.6-12.2,2-17.7-1.6c-5.3-3.5-6.5-8.5-6.5-14.1c0.1-32.2,0-64.4,0.2-96.6c0-4.2-1.3-6.9-5.2-9.5
	C64.9,62.1,67.3,35.5,90.2,25z M100.8,186.8c2.9,2.8,7.4,1.2,9.4-0.8c1.7-1.7,1.5-5.1-0.1-6.6c-1.6-1.6-5.8-1.7-7.8-0.3
	C100.2,180.6,97.9,184,100.8,186.8z"/>
<g>
	<path d="M159.7,49.8c11.4,0,22.6,0,34,0c0,0.2,0,0.5,0,0.7c0,26.4,0,88.5,0,115c0,1.2-0.8,2.1-1.4,3.1c-4.3,7.6-8.7,15.2-13,22.9
		c-0.8,1.5-1.7,3-2.6,4.6c-1-1.7-1.9-3.3-2.8-4.9c-4.3-7.6-8.6-15.2-12.9-22.8c-0.8-1.5-1.3-2.9-1.2-4.6c0.1-4.7,0-9.4,0-14.1
		c0-10.9,0-21.8-0.1-32.8c0-10.3,0-56.1-0.1-66.4C159.6,50.3,159.6,50.1,159.7,49.8z M169.9,159.5c-1.4,1.8-2.7,3.6-4.1,5.3
		c-0.8,1-0.8,1.7-0.2,2.8c2.4,4.3,4.7,8.6,7,12.9c0.2,0.4,0.5,0.6,1.1,0.6c2.1-0.1,4.3,0,6.4-0.1c0.3,0,0.7-0.2,0.9-0.5
		c2.7-4.6,5.4-9.2,8.2-13.9c0.2-0.4,0.2-0.7-0.1-1c-0.9-1.1-1.7-2.2-2.5-3.3c-0.7-0.9-1.4-1.8-2.1-2.8c-2.5,2.2-5,4.3-7.5,6.5
		C174.5,163.9,172.3,161.7,169.9,159.5z"/>
	<path d="M193.6,46.3c-11.3,0-22.6,0-33.9,0c0-0.2,0-0.5,0-0.7c0-4.1,0-8.3,0-12.4c0-3.5,3-6.1,7.1-6.1c5.9,0,11.9,0,17.8,0
		c4.4,0,9.2,2.4,9.2,7.5C193.7,38.4,193.6,42.4,193.6,46.3z"/>
</g>
<g>
	<path d="M6.8,100.3c18.7,0,21.4-10.3,21.4-19.5c0-7.4-1.1-14.8-2.1-22.2S24,44.1,24,36.7C24,12.4,39.8,2.2,62.2,2.2h5.5v14.5H63
		c-15.6,0-20.8,8.4-20.8,22.7c0,6.1,0.8,12.4,1.8,18.7c1.1,6.6,1.8,12.9,1.8,20.1c0.3,16.9-7.1,25.3-19,28.5v0.5
		c11.9,2.9,19.3,11.9,19,28.8c0,7.1-0.8,13.7-1.8,20.1c-1.1,6.6-1.8,12.7-1.8,19c0,14.8,6.1,23,20.8,23h4.7v14.5h-5.5
		c-21.9,0-38.3-9.5-38.3-36.1c0-7.1,1.1-14.5,2.1-21.6s2.1-14.3,2.1-21.4c0-8.2-2.6-19.5-21.4-19.5v-13.7H6.8z"/>
</g>
<g>
	<path d="M274.6,114.3c-18.7,0-21.4,10.3-21.4,19.5c0,7.4,1.1,14.8,2.1,22.2c1.1,7.4,2.1,14.5,2.1,21.9c0,24.3-15.8,34.6-38.3,34.6
		h-5.5V198h4.7c15.6,0,20.8-8.4,20.8-22.7c0-6.1-0.8-12.4-1.8-18.7c-1.1-6.6-1.8-12.9-1.8-20.1c-0.3-16.9,7.1-25.3,19-28.5v-0.5
		c-11.9-2.9-19.3-11.9-19-28.8c0-7.1,0.8-13.7,1.8-20.1c1.1-6.6,1.8-12.7,1.8-19c0-14.8-6.1-23-20.8-23h-4.7V2.2h5.5
		c21.9,0,38.3,9.5,38.3,36.1c0,7.1-1.1,14.5-2.1,21.6c-1.1,7.1-2.1,14.3-2.1,21.4c0,8.2,2.6,19.5,21.4,19.5V114.3z"/>
</g>
</svg>
