<?xml version="1.0" encoding="utf-8"?>
<!-- Generator: Adobe Illustrator 23.0.3, SVG Export Plug-In . SVG Version: 6.00 Build 0)  -->
<svg version="1.1" id="Layer_1" xmlns="http://www.w3.org/2000/svg" xmlns:xlink="http://www.w3.org/1999/xlink" x="0px" y="0px"
	 viewBox="0 0 72 72" style="enable-background:new 0 0 72 72;" xml:space="preserve">
<g>
	<path d="M18.8,25.1c0.8-0.4,1.5-0.8,2.3-1.3c4.8-2.7,9.7-5.3,14.5-8c0.3-0.1,0.4-0.1,0.7,0c5.5,3,11,6.1,16.5,9.1
		c0.1,0.1,0.2,0.1,0.3,0.2c-1.1,0.6-2.2,1.3-3.3,1.9c-4.5,2.6-9,5.2-13.5,7.8c-0.2,0.1-0.4,0.2-0.7,0c-5.5-3.2-11.1-6.4-16.7-9.6
		C19,25.2,18.9,25.1,18.8,25.1z"/>
	<path d="M17.6,27.2c0.7,0.4,1.3,0.7,1.9,1.1c5,2.9,9.9,5.7,14.9,8.6c0.3,0.2,0.4,0.3,0.4,0.6c0,5.8,0,11.5,0,17.3
		c0,0.1,0,0.3,0,0.5c-0.2-0.1-0.3-0.1-0.4-0.2c-5.5-3-10.9-6-16.4-9c-0.3-0.1-0.4-0.3-0.4-0.6c0-5.9,0-11.8,0-17.8
		C17.6,27.6,17.6,27.5,17.6,27.2z"/>
	<path d="M37.2,55.3c0-0.2,0-0.4,0-0.5c0-5.7,0-11.5,0-17.2c0-0.3,0.1-0.5,0.4-0.6c5.4-3.1,10.9-6.3,16.3-9.4
		c0.1-0.1,0.3-0.2,0.5-0.3c0,0.2,0,0.3,0,0.4c0,6,0,11.9,0,17.9c0,0.3-0.1,0.4-0.3,0.5c-5.5,3-10.9,6-16.4,9
		C37.6,55.1,37.4,55.2,37.2,55.3z"/>
	<path d="M67,52.9c-1.8-1-3.6-2.1-5.3-3.1c-1.5-0.9-3-1.7-4.5-2.6c-0.3-0.2-0.4-0.3-0.4-0.6c0-6.8,0-13.6,0-20.3
		c0-0.3,0.1-0.5,0.4-0.6c3.2-1.8,6.4-3.7,9.6-5.6c0.1,0,0.1-0.1,0.2-0.1C67,30.9,67,41.9,67,52.9z"/>
	<path d="M5,52.9c0-11,0-21.9,0-32.9c0.6,0.3,1.1,0.6,1.6,0.9c2.7,1.6,5.4,3.1,8.1,4.7c0.3,0.2,0.4,0.3,0.4,0.7c0,6.8,0,13.6,0,20.3
		c0,0.3-0.1,0.5-0.3,0.6c-2.7,1.6-5.5,3.1-8.2,4.7C6.1,52.2,5.6,52.5,5,52.9z"/>
	<path d="M37.2,1.6C46.8,7,56.3,12.4,65.8,17.8c-0.7,0.4-1.2,0.7-1.8,1.1c-2.6,1.5-5.3,3-7.9,4.5c-0.3,0.2-0.5,0.2-0.8,0
		c-3.4-1.9-6.8-3.8-10.2-5.6c-2.3-1.3-4.6-2.5-6.9-3.8c-1-0.5-1-0.5-1-1.7c0-3.4,0-6.8,0-10.2C37.2,2,37.2,1.8,37.2,1.6z"/>
	<path d="M6.2,17.8c9.5-5.4,19-10.7,28.5-16.1c0,0.2,0,0.3,0,0.4c0,3.7,0,7.4,0,11.1c0,0.3-0.1,0.4-0.3,0.5c-3.7,2-7.3,4-10.9,6
		c-2.3,1.2-4.5,2.5-6.8,3.8c-0.3,0.2-0.6,0.1-0.8,0C12.7,21.5,9.5,19.7,6.2,17.8z"/>
	<path d="M37.2,70.4c0-0.2,0-0.3,0-0.5c0-3.8,0-7.5,0-11.3c0-0.4,0.1-0.5,0.4-0.7c3.7-2,7.4-4.1,11.1-6.1c1.9-1,3.8-2.1,5.6-3.1
		c0.1-0.1,0.3-0.1,0.4,0c3.3,1.9,6.7,3.8,10,5.8c0.1,0,0.1,0.1,0.3,0.2C55.8,59.9,46.5,65.1,37.2,70.4z"/>
	<path d="M6.9,54.6c1-0.6,2-1.1,2.9-1.7c2.4-1.4,4.8-2.8,7.2-4.2c0.3-0.2,0.5-0.2,0.8,0c3.1,1.7,6.2,3.4,9.3,5.2
		c2.3,1.3,4.6,2.6,6.9,3.8c0.5,0.3,0.7,0.6,0.7,1.2c0,3.7,0,7.3,0,11c0,0.1,0,0.3,0,0.5C25.5,65.1,16.2,59.9,6.9,54.6z"/>
</g>
</svg>
