<?xml version="1.0" encoding="utf-8"?>
<!-- Generator: Adobe Illustrator 23.0.3, SVG Export Plug-In . SVG Version: 6.00 Build 0)  -->
<svg version="1.1" id="technicalSkills" xmlns="http://www.w3.org/2000/svg" xmlns:xlink="http://www.w3.org/1999/xlink" x="0px"
	 y="0px" viewBox="0 0 178 280" style="enable-background:new 0 0 178 280;" xml:space="preserve">
<style type="text/css">
	.st0{fill:#FFFFFF;}
</style>
<title>aboutMe</title>
<path class="st0" d="M57.3,190.4v-63.6c17.5-0.6,30.2-4.3,38.2-11.1s11.9-17.3,11.9-31.8c0-11.8-1.9-20.5-5.6-26.1
	s-9.6-8.3-17.6-8.3c-6.7,0-11.9,2.4-15.4,7.1s-5.3,11.8-5.3,21.1v1.9H0v-6.4c0-24,7.4-42.3,22.2-54.7S58.8,0,87.6,0
	c29.3,0,51.7,7.2,67.1,21.5S178,56.7,178,84c0,20.6-4.6,36.6-13.9,48.1c-9.2,11.5-23.4,18.8-42.5,22.1v36.3L57.3,190.4z
	 M130.8,247.1c0,9.5-3.9,17.3-11.9,23.6s-17.7,9.4-29.5,9.4c-11.7,0-21.6-3.1-29.5-9.4S48,256.6,48,247.1c0-9.4,4-17.2,12-23.5
	s17.8-9.4,29.4-9.4s21.4,3.2,29.4,9.4S130.8,237.7,130.8,247.1L130.8,247.1z"/>
</svg>
