<svg id="technicalSkills" xmlns="http://www.w3.org/2000/svg" viewBox="0 0 178 280">
  <title>aboutMe</title>
  <path d="M118.29,200.42V136.83q26.29-.95,38.17-11.05T168.31,94q0-17.77-5.63-26.1t-17.6-8.32q-10.12,0-15.38,7.11c-3.54,4.74-5.28,11.79-5.28,21.13v1.88H61V83.32q0-36.07,22.21-54.71T148.59,10q43.91,0,67.15,21.52T239,94q0,30.86-13.86,48.07t-42.49,22.06v36.3Zm73.5,56.66q0,14.22-11.85,23.57T150.47,290q-17.61,0-29.47-9.35t-11.86-23.57c0-9.35,4-17.17,12-23.48s17.78-9.44,29.36-9.44,21.36,3.16,29.36,9.44S191.79,247.73,191.79,257.08Z" transform="translate(-61 -10)" fill="#f7931e"/>
</svg>
