<svg id="technicalSkills" xmlns="http://www.w3.org/2000/svg" viewBox="0 0 280 199.72">
  <title>contactMe</title>
  <g>
    <path d="M10.17,249.86V116.79c5.44,3.75,10.62,7.3,15.78,10.88,27.22,18.88,54.36,37.85,81.66,56.6,15.57,10.68,33,13.68,51.59,11.91,16.06-1.52,29.3-9.13,42.16-18.22,28.6-20.21,57.5-40,86.29-60,.53-.37,1.09-.7,1.9-1.22V249.86Z" transform="translate(-10 -50.14)" fill="#f7931e"/>
    <path d="M10.05,50.14H289.66c0,5.75,0,11.44,0,17.13,0,3.46,1,7.48-.41,10.22s-5.31,4.19-8.15,6.16q-53.43,37-106.9,74c-11,7.57-23.28,8.64-35.88,5.58a41.65,41.65,0,0,1-13.37-6C87.2,131.34,49.63,105.2,12,79.17a4,4,0,0,1-2-3.76C10.11,67.07,10.05,58.74,10.05,50.14Z" transform="translate(-10 -50.14)" fill="#f7931e"/>
  </g>
</svg>
