<?xml version="1.0" encoding="utf-8"?>
<!-- Generator: Adobe Illustrator 23.0.3, SVG Export Plug-In . SVG Version: 6.00 Build 0)  -->
<svg version="1.1" id="technicalSkills" xmlns="http://www.w3.org/2000/svg" xmlns:xlink="http://www.w3.org/1999/xlink" x="0px"
	 y="0px" viewBox="0 0 280 199.7" style="enable-background:new 0 0 280 199.7;" xml:space="preserve">
<style type="text/css">
	.st0{fill:#FFFFFF;}
</style>
<title>contactMe</title>
<g>
	<path class="st0" d="M0.2,199.7V66.7C5.6,70.4,10.8,74,16,77.5c27.2,18.9,54.4,37.8,81.7,56.6c15.6,10.7,33,13.7,51.6,11.9
		c16.1-1.5,29.3-9.1,42.2-18.2c28.6-20.2,57.5-40,86.3-60c0.5-0.4,1.1-0.7,1.9-1.2v133.1H0.2z"/>
	<path class="st0" d="M0.1,0h279.6c0,5.8,0,11.4,0,17.1c0,3.5,1,7.5-0.4,10.2s-5.3,4.2-8.1,6.2c-35.6,24.7-71.3,49.3-106.9,74
		c-11,7.6-23.3,8.6-35.9,5.6c-4.8-1.2-9.3-3.2-13.4-6C77.2,81.2,39.6,55.1,2,29c-1.3-0.8-2.1-2.2-2-3.8C0.1,16.9,0.1,8.6,0.1,0z"/>
</g>
</svg>
