<?xml version="1.0" encoding="utf-8"?>
<!-- Generator: Adobe Illustrator 23.0.3, SVG Export Plug-In . SVG Version: 6.00 Build 0)  -->
<svg version="1.1" id="technicalSkills" xmlns="http://www.w3.org/2000/svg" xmlns:xlink="http://www.w3.org/1999/xlink" x="0px"
	 y="0px" viewBox="0 0 280 280" style="enable-background:new 0 0 280 280;" xml:space="preserve">
<style type="text/css">
	.st0{fill:#FFFFFF;}
</style>
<title>projects</title>
<g>
	<path class="st0" d="M246.6,2.7c-6.3,7.2-11.9,13.1-17.2,19.5c-9.7,11.7-9.9,27.5-0.9,38.5c9.2,11.1,23.1,11,33.1-0.6
		c5.6-6.4,10.7-13.3,16.6-20.8c8.5,36.8-15.4,69.5-47.1,66.6c-5.3-0.5-8.7,0.9-12.5,5.4c-44.4,52.7-89,105.3-133.7,157.8
		c-6.7,7.9-14.1,12.8-23.8,10c-18.3-5.1-24.4-30.1-11-46.3c22-26.4,44.3-52.4,66.6-78.6c23.3-27.4,46.5-54.9,69.9-82.2
		c3.3-3.9,4.5-7.4,3.9-13.2C186.6,22.9,216.7-8.2,246.6,2.7z M66,241.3c-5.1,0.1-9.8,5.8-9.2,11.7c0.6,6.3,3.8,10.3,9.3,10.6
		c5.1,0.3,9.7-5.2,9.7-11.2S71,241.2,66,241.3z"/>
	<path class="st0" d="M140.9,113.7l-22.4,25.8c-4-5.4-8-11.4-12.5-16.9c-9.2-11.1-18.6-22-27.9-33c-5.3-6.3-11.5-8.8-18.6-5
		c-6.9,3.7-10,10.3-9.7,19.4c0,2.7-0.8,5.4-2.3,7.7c-4.7,6.2-9.8,12-14.4,17.5C22.2,116.2,11.7,103.5,0,89.5c4.5-5,10-11.5,16-17.4
		c1.6-1.6,4.6-1.6,7-1.7c9.8-0.3,16.3-8.3,16.5-20c0.1-3.5,1.2-6.9,3.2-9.8C48.8,32.7,55.3,25,62,17.9C81.8-3,111.7-5.9,132.4,10.8
		c-2.4,6.1-6.4,7.9-12.1,7.6c-16.7-0.8-31,6.2-43.4,20.1L140.9,113.7z"/>
	<path class="st0" d="M157.3,196.8c10.9-12.8,21.4-25.2,32.4-38.1c-0.4-0.1,0.3-0.2,0.5,0.1c21.4,25,43,49.8,63.9,75.3
		c12.6,15.4,5.8,39.9-11.8,45c-8.4,2.5-15.6-0.6-21.5-7.5C199.5,246.9,178.5,221.9,157.3,196.8z"/>
</g>
</svg>
