<svg id="technicalSkills" xmlns="http://www.w3.org/2000/svg" viewBox="0 0 280 280">
  <title>projects</title>
  <g>
    <path d="M251.65,2.7c-6.32,7.15-11.93,13.15-17.21,19.53-9.66,11.69-9.95,27.51-.93,38.46,9.17,11.12,23.08,11,33.15-.56,5.56-6.4,10.69-13.31,16.61-20.75,8.48,36.82-15.42,69.49-47.14,66.59-5.33-.49-8.74.92-12.49,5.37Q157,190.42,89.94,269.15c-6.67,7.89-14.1,12.78-23.75,10C47.86,274,41.81,249,55.23,232.85c22-26.42,44.34-52.43,66.55-78.6,23.29-27.43,46.54-54.92,69.95-82.2,3.33-3.89,4.54-7.36,3.89-13.19C191.62,22.92,221.71-8.24,251.65,2.7ZM71,241.3c-5.07.13-9.81,5.84-9.23,11.71.63,6.3,3.76,10.27,9.34,10.61,5.1.31,9.7-5.18,9.68-11.17S76,241.17,71,241.3Z" transform="translate(-5 0)" fill="#f7931e"/>
    <path d="M145.94,113.68l-22.37,25.8c-4-5.38-8-11.4-12.5-16.88-9.16-11.14-18.58-22-27.89-32.95-5.32-6.27-11.52-8.8-18.63-5-6.94,3.69-10,10.31-9.72,19.43a13.4,13.4,0,0,1-2.32,7.7c-4.68,6.22-9.81,12-14.43,17.48C27.2,116.15,16.66,103.48,5,89.48,9.54,84.45,15,78,21,72.1c1.61-1.58,4.61-1.56,7-1.65,9.85-.34,16.26-8.34,16.55-20a18.08,18.08,0,0,1,3.18-9.82C53.82,32.71,60.25,25.05,67,17.89,86.82-3,116.73-5.92,137.35,10.83c-2.43,6.13-6.38,7.93-12.09,7.65-16.74-.81-31,6.16-43.42,20.09Z" transform="translate(-5 0)" fill="#f7931e"/>
    <path d="M162.28,196.79c10.91-12.82,21.45-25.23,32.38-38.08-.37-.06.25-.19.51.11,21.35,25,43,49.77,63.87,75.32,12.61,15.41,5.81,39.86-11.83,45-8.38,2.45-15.62-.6-21.52-7.51C204.51,246.86,183.49,221.87,162.28,196.79Z" transform="translate(-5 0)" fill="#f7931e"/>
  </g>
</svg>
