<svg id="technicalSkills" xmlns="http://www.w3.org/2000/svg" viewBox="0 0 280 280">
  <title>technicalSkills</title>
  <g>
    <path d="M132.21,290H116.49c-22.37,0-37.6-4.3-46.55-13.14C61.24,268.24,57,252.67,57,229.24V195.7C57,180,53.36,173,50.3,170,46.13,165.79,38,163.67,26,163.67c-.58,0-1.48,0-2.69.11-1.78.11-3.2.16-4.28.16H10V135.5h9.05c1.08,0,2.5.05,4.26.16,1.22.07,2.13.11,2.71.11,8.22,0,19.1-1.08,24.31-6.25,3.05-3,6.68-9.92,6.68-25.59V70.43C57,47.1,61.25,31.6,70,23c9-8.78,24.18-13,46.53-13h15.72V38.44h-15.1c-15.17,0-20,3.08-21.34,4.41C94.63,44,90.93,49,90.93,67v33.76c0,17.79-2.61,30.38-8,38.49a37.29,37.29,0,0,1-10.74,10.51A37.29,37.29,0,0,1,83,160.26c5.35,8.1,8,20.75,8,38.65V232.6c0,17.63,3.47,23,5,24.42s6.25,4.54,21.53,4.54h14.79Z" transform="translate(-10 -10)" fill="#f7931e"/>
    <path d="M183.51,290H167.79V261.56h15.09c15.18,0,20-3.08,21.34-4.4,1.14-1.12,4.85-6.12,4.85-24.12V199.28c0-17.78,2.61-30.37,8-38.49a37.16,37.16,0,0,1,10.74-10.51A37.26,37.26,0,0,1,217,139.75c-5.36-8.13-8-20.77-8-38.66V67.4c0-17.63-3.47-23-5-24.42s-6.26-4.54-21.53-4.54H167.79V10h15.72c22.36,0,37.59,4.3,46.54,13.14C238.76,31.76,243,47.33,243,70.76V104.3C243,120,246.64,127,249.7,130c5.2,5.22,16.07,6.31,24.27,6.31.59,0,1.49,0,2.69-.11,1.78-.11,3.21-.16,4.29-.16H290V164.5H281c-1.08,0-2.51-.05-4.26-.16-1.22-.07-2.13-.11-2.72-.11-11.77,0-20.18,2.16-24.3,6.25-3,3-6.68,9.92-6.68,25.59v33.5c0,23.33-4.24,38.83-13,47.38C221.08,285.74,205.87,290,183.51,290Z" transform="translate(-10 -10)" fill="#f7931e"/>
  </g>
</svg>
