<?xml version="1.0" encoding="utf-8"?>
<!-- Generator: Adobe Illustrator 23.0.3, SVG Export Plug-In . SVG Version: 6.00 Build 0)  -->
<svg version="1.1" id="technicalSkills" xmlns="http://www.w3.org/2000/svg" xmlns:xlink="http://www.w3.org/1999/xlink" x="0px"
	 y="0px" viewBox="0 0 280 280" style="enable-background:new 0 0 280 280;" xml:space="preserve">
<style type="text/css">
	.st0{fill:#FFFFFF;}
</style>
<title>technicalSkills</title>
<g>
	<path class="st0" d="M122.2,280h-15.7c-22.4,0-37.6-4.3-46.5-13.1c-8.7-8.6-12.9-24.2-12.9-47.6v-33.5c0-15.7-3.6-22.7-6.7-25.7
		c-4.2-4.2-12.3-6.3-24.3-6.3c-0.6,0-1.5,0-2.7,0.1c-1.8,0.1-3.2,0.2-4.3,0.2H0v-28.4h9c1.1,0,2.5,0.1,4.3,0.2
		c1.2,0.1,2.1,0.1,2.7,0.1c8.2,0,19.1-1.1,24.3-6.3c3-3,6.7-9.9,6.7-25.6V60.4c0-23.3,4.2-38.8,13-47.4c9-8.8,24.2-13,46.5-13h15.7
		v28.4h-15.1c-15.2,0-20,3.1-21.3,4.4C84.6,34,80.9,39,80.9,57v33.8c0,17.8-2.6,30.4-8,38.5c-2.8,4.2-6.5,7.8-10.7,10.5
		c4.3,2.7,8,6.3,10.8,10.5c5.3,8.1,8,20.8,8,38.7v33.7c0,17.6,3.5,23,5,24.4s6.3,4.5,21.5,4.5h14.8L122.2,280z"/>
	<path class="st0" d="M173.5,280h-15.7v-28.4h15.1c15.2,0,20-3.1,21.3-4.4c1.1-1.1,4.9-6.1,4.9-24.1v-33.8c0-17.8,2.6-30.4,8-38.5
		c2.8-4.2,6.5-7.8,10.7-10.5c-4.3-2.7-8-6.3-10.8-10.5c-5.4-8.1-8-20.8-8-38.7V57.4c0-17.6-3.5-23-5-24.4s-6.3-4.5-21.5-4.5h-14.7V0
		h15.7c22.4,0,37.6,4.3,46.5,13.1c8.7,8.6,13,24.2,13,47.6v33.5c0,15.7,3.6,22.7,6.7,25.7c5.2,5.2,16.1,6.3,24.3,6.3
		c0.6,0,1.5,0,2.7-0.1c1.8-0.1,3.2-0.2,4.3-0.2h9v28.5h-9c-1.1,0-2.5-0.1-4.3-0.2c-1.2-0.1-2.1-0.1-2.7-0.1
		c-11.8,0-20.2,2.2-24.3,6.3c-3,3-6.7,9.9-6.7,25.6v33.5c0,23.3-4.2,38.8-13,47.4C211.1,275.7,195.9,280,173.5,280z"/>
</g>
</svg>
