<?xml version="1.0" encoding="utf-8"?>
<!-- Generator: Adobe Illustrator 23.0.3, SVG Export Plug-In . SVG Version: 6.00 Build 0)  -->
<svg version="1.1" id="Layer_1" xmlns="http://www.w3.org/2000/svg" xmlns:xlink="http://www.w3.org/1999/xlink" x="0px" y="0px"
	 viewBox="0 0 536 300" style="enable-background:new 0 0 536 300;" xml:space="preserve">
<style type="text/css">
	.st0{fill:#1A1A1A;}
</style>
<g>
	<path class="st0" d="M171.29,175.21c-0.95-0.46-2.67-0.84-2.73-1.4c-0.7-6.5-5.55-5.51-9.54-5.43c9.03-3.77,4.09-11.6,4.94-17.66
		c0.44-3.2-0.74-5.23-5.26-4.16c2.21-1.29,3.67-2.14,5.13-3c-0.19-0.64-0.38-1.28-0.58-1.92c-9.96,0.86-19.93,1.72-29.89,2.58
		c-0.27,0.59-0.53,1.19-0.8,1.78c2.3,3.53,4.89,6.91,6.82,10.63c1.6,3.08,2.59,6.51,3.56,9.87c0.73,2.53,0.94,5.21,1.48,7.81
		c1.85,8.85,1.87,8.85,11.51,9.33c-2.91,1.06-4.97,1.81-7.57,2.75c3.25,6.46,9.02,2.33,13.09,3.9c-2.18,0.54-4.43,1.1-6.67,1.65
		c-0.11,0.46-0.23,0.93-0.34,1.39c5.46,2.56,10.92,5.11,16.35,7.66c-1.75,2.97-3.81,2.26-6.14,0.23c-1.59-1.38-3.24-2.97-5.16-3.66
		c-11.71-4.22-15.81-13.37-17.6-24.83c-2.75-17.65-3.69-18.03-21.13-15.3c-1.72,0.27-3.45,0.39-5.3-0.07
		c5.47-1.25,10.94-2.5,16.58-3.79c-1.82-10.04-3.36-19.56-5.44-28.97c-0.29-1.33-3.18-3.01-4.81-2.96
		c-5.96,0.21-11.9,1.06-17.84,1.71c-1.36,0.15-2.69,0.5-4.04,0.76c-0.08-0.43-0.15-0.86-0.23-1.3c9.13-1.53,18.27-3.06,27.46-4.59
		c0.34-4.92-1.97-7.22-6.91-6.54c-3.79,0.53-7.57,1.09-11.46,1.12c3.21-1.15,6.42-2.3,10.6-3.79c-5.86-8.31-10.69-16.15-16.51-23.15
		c-6.07-7.31-16.93-5.04-20.23,4.02c-3.49,9.6-6.33,19.44-9.59,29.63c1.92,0.19,3.37,0.33,5.57,0.54
		c-4.93,2.1-10.41,3.14-7.46,10.49c1.98-0.31,3.97-0.63,4.8-0.76c-0.38,2.32-1.35,4.97-1.11,7.5c0.65,6.67,2.04,13.27,2.72,19.94
		c0.44,4.36,1.66,6.67,6.56,5.1c2.12-0.68,4.44-0.72,6.86-0.33c-3.04,0.86-6.05,1.87-9.13,2.56c-5.26,1.19-7.83,4.57-8.11,9.74
		c-0.29,5.29-0.05,10.62-0.63,15.86c-0.27,2.49-1.9,4.83-3,7.42c-0.33-3.38-0.58-5.98-0.84-8.59c-1.74,1.11-3.48,2.21-6.08,3.88
		c1.57-2.91,2.75-5.46,4.28-7.79c0.95-1.45,3.13-2.36,3.53-3.85c1.93-7.22,3.43-14.56,5.12-22c-20.37,5.72-29.17,30.77-18.35,51.41
		c-3.4-2.66-3.4-2.66-7.13-17.88c-1.2,10.95-2.9,21.9-0.65,33.46c-7.2,2.15-9.61,8.96-12.05,15.6c-1.8,4.89-4.56,8.54-9.41,10.84
		c-2.47,1.17-4.28,3.66-6.61,5.21c-2.16,1.44-4.62,2.42-7.33,2.7c6.93-5.55,13.87-11.1,20.8-16.66c-0.52-0.8-1.03-1.6-1.55-2.4
		c-6.03,2.76-12.06,5.52-18.09,8.28c-0.19-0.24-0.39-0.48-0.58-0.72c3.37-2.03,6.53-5.27,10.13-5.85
		c10.96-1.77,14.7-10.72,19.52-18.43c1.58-2.54,1.06-6.46,1.27-9.76c0.45-7.19,0.75-14.4,1.13-21.97
		c-10.87,2.1-21.36,4.12-31.85,6.15c-0.09-0.33-0.17-0.66-0.26-0.98c4.54-1.06,9.06-2.2,13.63-3.15c5.35-1.11,10.81-1.81,16.08-3.19
		c1.64-0.43,3.85-2.33,4.12-3.85c2.31-13.3,10.74-21.99,21.41-28.93c3.33-2.17,4.42-4.63,3.69-8.36c-1.27-6.47-0.66-13.36-5.4-19.02
		c-1.31-1.57-1.66-4.93-0.99-6.99c3.58-11.05,7.83-21.88,11.43-32.92c2.02-6.17,5.82-10.3,12.18-12.81
		c-1.56-8.42-3.06-16.73-4.71-25.01c-0.18-0.9-1.57-1.55-1.76-2.44c-0.26-1.29,0.06-2.7,0.14-4.06c1.31,0.4,2.64,0.74,3.92,1.22
		c1.34,0.51,2.72,1.82,3.91,1.64c6.47-0.94,12.92-2.62,18.76,2.09c0.47,0.38,1.45,0.48,2.04,0.27c7.79-2.72,13.89,3.93,21.23,3.82
		c1.13-0.02,2.29,1.22,4.05,2.23c-8.94,2.7-17.01,5.19-25.12,7.53c-1.01,0.29-2.55,0.27-3.31-0.3c-5.98-4.55-11.49-1.22-16.83,1.17
		c-1.01,0.45-1.46,3.72-1.03,5.4c0.58,2.24,1.84,4.68,3.57,6.15c3.36,2.86,7.87,4.53,10.76,7.73c3.99,4.41,6.69,9.96,10.41,14.67
		c2.52,3.19,5.62,6.04,8.83,8.56c4.16,3.27,4.98,9.26,4.19,14.51c-0.85,5.67,0.63,11.68,1.12,17.97c10.61-1.03,20.2-1.95,30.74-2.97
		c-0.92-9.85,0.5-20.05-3.25-27.74c-3.92-8.03-1.87-12.25,2.01-18.53c6.38-10.34,11.55-21.42,17.32-32.14
		c0.82-1.52,1.9-3.42,3.33-4.01c5.27-2.19,5.35-6.29,4.62-10.81c-0.91-5.64-2.01-11.26-2.81-16.91c-0.16-1.1,0.7-2.34,1.09-3.52
		c1.12,0.58,2.66,0.89,3.26,1.81c0.66,1.01,0.45,2.59,0.65,4.22c2.95-0.5,5.7-1.05,8.47-1.4c1.92-0.24,4-0.71,5.78-0.23
		c7.49,2.02,14.88,4.41,22.34,6.54c1.66,0.47,3.54,0.2,5.19,0.7c2.96,0.89,5.83,2.09,9.67,3.51c-5.41,2.23-9.14,4.03-13.04,5.27
		c-1.92,0.61-4.17,0.23-6.27,0.27c-1.18,0.03-2.45-0.26-3.54,0.06c-4.07,1.18-7.43,1.18-11.92-0.45c-4.41-1.6-10.43,1.25-15.74,2.15
		c0.56,2.03,0.56,4.52,1.78,6.01c2.7,3.28,6.69,5.61,8.92,9.12c4.06,6.39,7,13.47,10.83,20.02c2,3.41,5.37,6.04,7.23,9.49
		c1.52,2.81,2.35,6.33,2.36,9.54c0.02,4.71-0.96,9.43-1.51,14.14c0.61,0.17,1.22,0.34,1.83,0.51c2.19-3.68,4.38-7.36,6.58-11.03
		c8.58-14.34,18.26-14.83,28.13-1.45c0.83,1.12,1.75,2.18,3.84,4.76c1.26-3.53,2.51-5.92,2.91-8.44c0.41-2.58-0.13-5.29-0.02-7.94
		c0.13-3.24,0.04-6.05-3.11-8.31c-1.44-1.03-2.32-3.71-2.34-5.66c-0.06-4.73,0.25-9.52,1.01-14.19c0.26-1.58,2.03-3.55,3.57-4.17
		c4.4-1.76,8.97-3.28,13.62-4.22c6.25-1.26,7.16-0.55,13.13,7.15c2.71-4.61,3.59-11.01,10.4-11.15c5.47-0.11,10.95-0.12,16.42-0.36
		c7.04-0.31,5.75,8.94,11.45,10.21c4.43-9.32,6.93-10.89,20.54-7.87c6.52,1.45,9.5-1.19,13.34-5.04c3.77-3.77,8.31-6.76,12.48-10.15
		c0.76-0.62,1.84-1.45,1.9-2.24c0.59-8.71,1-17.44,1.52-27.2c-0.24,0.05,0.97-0.19,2.18-0.42c0.34,1.84,0.67,3.68,0.97,5.32
		c4.35-0.29,9.19-0.87,14.02-0.81c2.35,0.03,5.33,0.6,6.89,2.1c3.99,3.84,8.48,4.93,13.77,4.85c4.33-0.06,7.97,1.62,9.11,6.41
		c6.32,0.55,13.33-1.74,17.41,4.19c-5.99,2.12-11.76,4.17-17.54,6.21c-2.18,0.77-4.05,1.77-5.76-1.32
		c-0.62-1.12-3.78-1.35-5.68-1.13c-3.13,0.36-6.18,2.01-9.25,1.95c-2.13-0.04-5.59-1.59-6.08-3.2c-1.14-3.74-3.39-4.2-6.38-3.88
		c-3.31,0.35-6.69,0.65-9.85,1.6c-3.09,0.92-3.96,6.41-1.21,7.96c7.47,4.21,10.6,11.65,14.44,18.52
		c3.88,6.93,7.26,14.14,10.89,21.21c0.56,1.09,1.15,2.21,1.92,3.15c4.6,5.65,3.98,9.27,1.46,15.77c-2.62,6.74-3.49,14.24-4.51,21.5
		c-1.54,11.02-2.6,22.1-3.71,33.17c-0.16,1.63,0.39,3.38,0.86,5.01c0.49,1.68,1.81,3.25,1.85,4.9c0.31,12.2,9.01,15.58,18.63,18.1
		c2.22,0.58,4.45,1.14,6.66,1.73c5.09,1.37,8.71-1.83,7.77-6.93c-0.16-0.87-0.43-1.72-0.71-2.55c-3.47-10.05,0.96-17.36,11.71-19.18
		c5.33-0.9,10.68-2.18,16.04-2.31c5.16-0.13,10.34,1,15.68,1.6c1.01-4.81,1.82-11.63,8.55-11.24c4.4,0.25,9.7,3.7,12.52,7.33
		c2.88,3.71-1.16,7.32-4.05,9.51c1.53,3.56,4.16,6.98,4.11,10.35c-0.05,3.49-2.91,6.87-4.18,10.43c-2.34,6.58-4.42,13.25-6.81,20.47
		c12.44,0.93,24.93-1.72,34.08,8.27c-9.38-7.69-20.61-6.71-31.61-6.49c-1.25,0.02-3.05,1.51-3.59,2.76
		c-1.24,2.87-1.86,6.02-2.52,8.33c1.72,2.03,2.99,3.52,4.25,5.01c-1.72,1.31-3.28,3.43-5.18,3.79c-14.92,2.88-29.51,1.77-43.48-4.65
		c-3.12-1.44-4.94-3.42-4.88-7.31c0.03-2.18-1.17-4.85-2.69-6.5c-5.35-5.79-6.41-10.77-2.91-18.55c-4.07-1.09-8.05-2.16-13.56-3.64
		c5.45,7.6,5.3,14.74,4.75,22.07c-0.27,3.66,0.27,7.41,0.76,11.07c0.19,1.44,0.97,3.02,1.96,4.08c3.66,3.94,7.4,7.84,11.35,11.48
		c2.68,2.47,5.46,5.26,8.74,6.55c6.28,2.46,11.63,5.71,15.66,11.22c1.19,1.62,3.24,2.63,4.94,3.85c2.04,1.48,4.14,2.89,6.21,4.32
		c-0.39,0.49-0.77,0.98-1.16,1.48c-4.66-3.92-9.15-8.05-14.03-11.67c-3.2-2.37-6.78-4.47-10.51-5.83c-6.03-2.19-11.06-5-13.98-11.2
		c-1.4-2.97-4.25-5.27-6.78-8.27c-1.89,2.26-3.04,3.63-4.64,5.55c-0.55-9.71-1.07-18.74-1.6-28.15c-1.35,0.69-2.37,1.21-3.94,2.02
		c9.77-15.24-3.37-18.64-11.16-24.79c-0.5,0.31-1,0.63-1.49,0.94c0.86,1.1,1.5,2.58,2.63,3.25c8.06,4.75,9.75,14.54-1.51,20.04
		c-4.89,2.39-9.81,4.73-14.68,7.17c-4.28,2.15-7.6,5.11-8.35,10.21c-0.73,4.96-2.89,8.74-9.09,10.13c1.37,0.59,2.73,1.17,4.1,1.76
		c-0.34,0.4-0.68,0.79-1.02,1.19c-0.47,0.11-1.15,0.49-1.36,0.31c-2.44-2.1-4.76-4.34-7.21-6.43c-1.71-1.46-3.56-2.74-5.53-4.24
		c-0.29,0.37,0.28-0.35,1.06-1.36c-5.15-3.12-10.48-1.89-15.49-0.92c-9.1,1.77-14.22,1.24-14.82,15.14
		c-0.23,5.32-4.41,7.16-8.56,8.99c-2.42,1.07-5.42,2.02-4.11,5.09c-8.96,5.06-17.85,10.08-26.74,15.1c-0.22-0.33-0.44-0.67-0.65-1
		c1.5-0.96,3.03-1.87,4.5-2.87c7.08-4.81,14.16-9.62,21.21-14.47c1.31-0.9,2.36-2.58,3.75-2.87c7.24-1.51,8.78-6.98,9.29-13.03
		c0.51-6.04,3.75-9.36,9.46-10.38c5.03-0.89,10.09-1.68,15.17-2.14c5.31-0.48,9.47,1.66,12.78,6.01c1.19,1.56,3.89,3.27,5.44,2.91
		c1.98-0.46,4.77-2.79,4.99-4.58c1.1-8.96,7.03-12.73,14.48-15.79c4.69-1.93,8.91-5,13.34-7.54c3.19-1.83,4.02-4.64,3.58-8.11
		c-0.47-3.66-2.07-6.24-7-7.44c0.83,4.38,1.55,8.15,2.27,11.92c-0.26,0.16-0.52,0.32-0.79,0.49c-1.02-2.63-2.75-5.22-2.9-7.9
		c-0.29-5.26,0.39-10.57,0.52-15.86c0.24-9.58-1.71-11.76-11.19-12.88c-10.65-1.26-21.3-2.52-31.96-4.29
		c8.49,0.54,16.98,1.07,25.46,1.62c0.35,0.02,0.68,0.19,1.03,0.26c11.07,2.23,12.63,1.38,14.09-9.42c1.9-14,3.28-28.07,5.1-42.08
		c0.49-3.72-1.2-5.37-4.32-5.95c-6.18-1.15-12.4-2.07-18.61-3.75c8.78,0.65,17.56,1.3,26.29,1.95c1.73-8.24,1.73-8.24-8.48-11.74
		c1.67-0.4,2.82-0.67,5.1-1.21c-6.74-11.92-12.98-23.57-19.85-34.83c-3.55-5.82-7.51-6.36-12.85-2.12
		c-3.67,2.91-6.93,6.57-9.65,10.42c-6.08,8.61-11.7,17.54-17.88,26.9c2.53,0.16,4.35,0.27,7.6,0.47c-4.44,1.33-7.53,2.24-10.61,3.17
		c-4,1.21-4.08,4.3-3.74,8.28c11.5-1.19,22.87-3.39,34.31-0.38c-5.51,0.34-11.02,0.67-16.53,1.04c-2.11,0.14-4.24,0.24-6.32,0.61
		c-6.19,1.1-7.49,2.84-7.86,9.11c-0.92,15.65-1.98,31.28-3.02,47.53c0.57,0.18,2.07,0.67,4.73,1.52c-9.4,0.85-11.99,6.78-13.4,13.8
		c-0.73,3.63-1.77,7.19-2.55,10.81c-2.26,10.61-9.08,16.1-21.1,16.08c14.85-1.69,18.54-12.22,21-24.41
		c1.04-5.16,4.87-9.71,6.37-14.85c1.77-6.05,2.69-12.4,3.44-18.69c1.15-9.6,1.84-19.25,2.77-29.46c-6.7-0.04-12.4-2.13-16.94,4.33
		c-3.23,4.59-7.96,0.97-12.48-0.49c1.27-0.48,2.55-0.96,3.82-1.43c-7.57-5.07-14.24-2.91-20.84-1.9c-0.61,0.09-1.12,1.24-1.57,1.96
		c-3.31,5.26-6.8,6.19-13.02,3.19c1.76-0.32,3.24-0.58,6.08-1.09c-2.05-1.54-3.27-3.23-4.49-3.24c-4.86-0.02-9.84-0.05-14.54,0.99
		c-2.89,0.64-4.37,3.53-2.25,6.75c4.79,7.29,9.9,14.39,14.21,21.96c1.47,2.59,2.05,6.72,1.09,9.47c-3.77,10.8-1.36,18.19,7.68,24.3
		c3.35,2.26,5.71,6.28,7.88,9.89c1.5,2.48,2.08,5.58,2.76,8.48c2.75,11.79,10.37,18.84,21.74,22.32c-0.23,0.44-0.45,0.89-0.68,1.33
		c-6.22-2.7-12.45-5.39-18.67-8.09c0.1-0.32,0.2-0.64,0.3-0.97c0.7,0.13,1.4,0.26,2.13,0.39c-2.17-4.61-4.08-9.38-6.69-13.73
		c-0.78-1.3-3.5-1.43-5.36-2.11c1.24-1.37,2.38-2.62,4.22-4.64c-2.93-0.27-4.64-0.43-7.11-0.66c2.02-0.86,3.46-1.47,5.75-2.44
		c-1.79-1.51-3.23-2.73-4.25-3.58c1-6.02-3.89-4.42-5.76-5.12c-1.45-2.5-2.59-4.47-3.73-6.44c-0.43,0.12-0.86,0.25-1.29,0.37
		c-0.41,4.87-1.02,9.74-1.07,14.62c-0.01,0.91,2.17,1.85,2.18,1.86c-1.69,3.13-3.37,6.24-5.46,10.11c3.51,0.45,6.01,0.78,8.52,1.1
		c-11.95-1.29-18.38,9.76-28.39,12.6c-3.65,1.03-7.04,2.96-10.69,3.99c-4.41,1.24-8.39,2.59-8.96,8.19
		c-1.82,0.11-3.75,0.22-6.24,0.36c6.06-5.03,11.59-9.04,19.11-11.3c8.19-2.47,15.42-8.26,22.86-12.93c1.59-1,2.64-3.32,3.3-5.25
		c4.09-12.02,2.84-24.37,1.56-36.61c-0.19-1.77-3.09-4.25-5.1-4.66c-5.5-1.12-11.18-1.32-16.79-2.22c8.03,0,16.05,0,24.08,0
		c1.13-7.21-0.23-9.23-7.1-9.46c-7.02-0.24-14.05-0.05-21.09-1.17c7.31,0,14.62,0,22.5,0c-0.46-1.87-0.51-3.11-1.06-4.09
		c-4.72-8.48-9.48-16.94-14.38-25.32c-0.96-1.63-2.51-2.97-3.96-4.26c-5.81-5.15-12.64-4.62-16.62,2.08
		c-6.2,10.43-11.71,21.27-17.91,32.67c3.08,0.4,5.42,0.7,7.75,0.99c0.02,0.16,0.04,0.33,0.06,0.49c-2.67,0.41-5.32,0.99-8.01,1.18
		c-3.57,0.25-4.43,2.4-4.25,5.41c0.22,3.49,2.43,3.64,5.26,3.27c6.43-0.84,12.89-1.44,19.42-1.41c-4.53,0.49-9.06,0.92-13.58,1.5
		c-4.71,0.61-7.46,2.47-7.29,8.15c0.3,10.42-0.15,20.86-0.5,31.29c-0.4,11.9-5.66,16.92-18.25,16.58c2.72-1.04,5.36-2.36,8.16-3.05
		c4.81-1.19,7.29-4.26,7.53-8.94c0.58-11.46,1.06-22.94,1.22-34.41c0.04-2.62-1.02-5.44-2.22-7.84c-2.18-4.36-2.71-8.1,1.07-12.02
		c4.39-4.55,7.29-9.86,6.48-16.63c-0.55-4.56-0.47-9.19-1.09-13.74c-0.24-1.8-1.59-3.45-2.47-5.23c0.65-0.07,2.32-0.26,3.96-0.45
		c1.35-5.6,0.44-6.92-4.94-6.75c-7.4,0.24-14.79,0.67-22.24,0.2c7-0.63,13.99-1.26,21.85-1.97c-1.55-3.29-2.88-6.41-4.47-9.38
		c-4.07-7.62-7.88-15.42-12.51-22.68c-3.95-6.18-9.04-6.04-13.52-0.11c-2.43,3.21-4.32,6.86-6.28,10.42
		c-5.52,10.01-11.06,20.01-16.33,30.15c-1.25,2.41-0.9,5.12,2.95,4.93c2.25-0.11,4.48-0.6,6.96-0.69c-6.19,1.16-7.03,4.9-6.43,10.45
		c1.42,13.16,2.75,26.39,2.95,39.61c0.11,7.44,2.04,13.63,6.27,19.42C171.63,174.92,171.46,175.07,171.29,175.21z M460.61,190.32
		c4.34-0.47,9.28,0.2,12.9-1.67c6.01-3.1,5.66-3.79,7.95,2.04c4.79-0.25,8.58-1.55,8.19-7.81c-1.64-0.24-3.17-0.46-5.47-0.79
		c2.55-1.22,4.32-1.95,5.97-2.89c4.59-2.63,7.12-6.83,5.89-11.85c-0.63-2.57-3.54-4.94-5.99-6.52c-0.9-0.58-3.43,1.37-6.06,2.53
		c2.24,1.94,3.4,2.95,4.6,3.98c-0.85,0.52-1.7,1.05-2.41,1.48c-0.84-1.27-1.66-2.5-2.8-4.23c-1.55,2.16-2.71,3.77-3.9,5.43
		c1.76,0.9,3.12,1.6,4.48,2.3c-6.66-1.88-14.06-1.83-19.51-7.43c7.56,5.23,7.94-3.25,11.66-5.15c-5.26-8.47-15.99-9.12-22.11-1.8
		c-2.48,2.97-5.08,5.84-7.68,8.72c-0.29,0.32-0.87,0.37-1.47,0.61c0.37-0.97,0.66-1.72,1.11-2.89c-2.37,0.52-4.31,0.95-7.54,1.66
		c2.27,2.37,3.39,4.35,5.07,5.15c13.63,6.53,27.79,9.18,42.53,4.28c6.39-2.12,6.45-3.07,2.38-8.3c1.19-0.45,2.37-0.91,3.99-1.52
		c3.01,4.42,1.1,10.21-6.26,12.05c-14.95,3.74-29.78,2.88-43.53-4.8c-2.35-1.31-3.92-4.34-5.3-6.87c-0.34-0.63,1.43-2.41,2.23-3.67
		c3.48,3.47,5.84,0.04,8.48-1.43c0.28-0.16,0.28-0.83,0.45-1.35c-1.49,0.15-2.75,0.28-4.01,0.41c-0.05-0.28-0.1-0.57-0.15-0.85
		c2.78-0.74,5.56-1.47,9.53-2.52c-8.29-2.28-16.92,2.69-18.6,8.5c-1.28,4.43,3.16,9.34,10.97,12.37c0.33,0.13,0.66,0.26,0.99,0.38
		c2.81,1.03,5.62,2.06,8.43,3.08c-0.13,0.39-0.27,0.78-0.4,1.16c-5.64-1.81-11.28-3.63-16.91-5.44c-0.39,0.5-0.78,1-1.17,1.49
		c1.2,1.85,2.4,3.69,3.6,5.54c-1.07,1.05-2.82,1.97-3.07,3.18c-0.51,2.54-0.72,5.36-0.11,7.83c0.44,1.79,2.14,4.18,3.73,4.59
		c3.4,0.88,7.32,1.56,10.6,0.69c5.46-1.45,11.51-2.4,15.54-7.45C464.79,191.7,462.7,191.01,460.61,190.32z M280.45,65.63
		c0.94-1.32,2.76-2.89,2.47-3.66c-0.55-1.44-2.14-2.9-3.63-3.46c-1.32-0.49-3.11,0.14-4.66,0.46c-13.99,2.84-14.76,3.79-14.66,17.78
		c0.04,5.44,1.45,6.33,6.42,4.36c2.73-1.09,5.59-1.85,8.4-2.77c0.13,0.47,0.25,0.95,0.38,1.42c-1.64,0.39-3.54,0.39-4.87,1.26
		c-1.91,1.25-4.68,3.02-4.85,4.77c-0.59,6.2-0.23,12.5-0.23,18.6c7.38,1.49,15.6-2.86,19.66,7.9c3.19-10.66,10.66-9.23,17.64-9
		c1.77,0.06,3.7-0.27,5.25,0.35c1.85,0.73,3.97,1.93,4.92,3.55c2.22,3.76,3.86,4.36,6.44,0.74c2.49-3.5,5.49-4.61,9.51-4.29
		c2.5,0.2,5.04,0.04,9.46,0.04c-10.83-11.38-3.39-18.62,4.46-26.59c-6.32-0.49-11.08-0.86-15.84-1.23c4.57-0.89,9.13-0.8,13.67-0.95
		c1.3-0.04,3.14-0.38,3.76-1.26c3.22-4.57,6.13-9.36,10.18-15.7c-6.23-0.67-11.12-1.41-16.05-1.67c-7.24-0.38-8.08,0.65-7.57,8.22
		c-3.93,0.01-8.98,1.81-10.38-3.47c-1.69-6.4-5.65-7.34-11.08-6.92c-2.99,0.23-6.19-0.37-8.96,0.49c-2.71,0.85-5.93,2.53-7.27,4.81
		C289.45,65.5,287.43,66.86,280.45,65.63z M462.59,207.19c-0.03,0.19-0.06,0.37-0.1,0.56c-8.15,0-16.31,0-24.73,0
		c-1.25,3.38,0.06,6.42,3.82,7.45c8.1,2.23,16.26,4.75,24.55,5.64c12.22,1.31,12.93,0.28,16.01-11.62c0.07-0.28-0.14-0.63-0.28-1.23
		c-3.36,0.17-6.78,0.34-10.84,0.55c4.8-1.58,9.91-1.8,12.32-4.47c2.59-2.86,2.64-8.01,3.86-12.38c-5.49-0.21-9.19,1.02-12.88,4.58
		c-4.25,4.1-9.88,6.76-15.29,10.29C460.56,206.83,461.58,207.01,462.59,207.19z M376.62,28.55c9.59,0,17.55,0,26.07,0
		c1-2.84,2.03-6.93-1.53-9.71c-6.44-5.03-14.07-3.78-20.59-0.86C378.15,19.06,377.87,24.9,376.62,28.55z M187.7,44.11
		c8.17,0,14.92,0,22.9,0c-1.33-3.54-1.67-8.89-4.43-10.88c-5.26-3.79-11.84-1.15-16.95,1.54C187.44,35.7,188.08,41.23,187.7,44.11z
		 M111.65,61.58c-1.55-2.95-2.91-8.69-5.06-9c-5.42-0.78-11.33,0.43-16.69,2.04c-0.81,0.24,0.31,6.91,0.49,9.73
		C97.56,63.42,103.72,62.62,111.65,61.58z M472.86,167c0.39,0.68,0.77,1.37,1.16,2.05c1.82-0.89,3.81-1.55,5.44-2.71
		c4.08-2.89,7.79-6.35,12.04-8.93c3.06-1.86,6.86-4.11,4.93-7.3c-1.77-2.93-6.18-5.33-9.73-5.84c-4.05-0.58-6.46,3.61-5.78,7.22
		c0.8,4.2-0.77,6.67-3.26,9.36C475.9,162.75,474.45,164.94,472.86,167z M401.82,34.12c6.07-0.43,11.71-0.82,17.6-1.24
		c2.01-5.57,1.39-9.21-2.59-9.94c-3.35-0.62-6.98-0.35-10.35,0.28c-0.83,0.16-0.97,3.31-1.67,4.99
		C404.02,30.12,402.96,31.9,401.82,34.12z M223.78,43.46c-0.95-2.49-1.22-6-2.89-6.89c-2.51-1.35-7.56-2.2-8.72-0.85
		c-1.73,2.02-1.02,6.13-1.35,9.49C215.46,44.59,219.02,44.11,223.78,43.46z M112.3,55.24c0.41,8.21,2.22,9.11,11.52,5.76
		C123.83,53.53,121.05,52.14,112.3,55.24z M435.35,30.12c-7.38-3.84-14.12-1.22-14.03,5.42C425.99,33.74,430.67,31.93,435.35,30.12z
		 M224.98,44.29c3.33-1.49,5.94-2.66,8.54-3.82c-0.04-0.33-0.07-0.66-0.11-0.99c-2.76-0.17-5.52-0.34-8.44-0.51
		C224.98,40.96,224.98,42.33,224.98,44.29z"/>
	<path class="st0" d="M184.12,234.6c-5.61-0.69-11.23-1.37-16.84-2.06c-0.15,0.45-0.3,0.9-0.44,1.36c0.88,1.14,1.76,2.27,2.64,3.41
		c-0.21,0.25-0.42,0.49-0.64,0.74c-1.21-1.19-3.27-2.26-3.47-3.61c-0.53-3.57-4.42-6.11-3.04-10.32c0.12-0.36-2.63-2.37-4.08-2.41
		c-7.58-0.21-15.23-0.58-22.75,0.2c-4.63,0.48-1.3,2.94-0.72,3.66c-2.8,4.48-5.4,8.62-7.99,12.77c-0.56-0.35-1.12-0.7-1.68-1.05
		c0.79-1.06,1.58-2.11,2.36-3.16c-0.28-0.3-0.47-0.7-0.71-0.73c-1.75-0.22-3.52-0.62-5.26-0.5c-7.47,0.5-12.78-1.71-15.72-9.43
		c-1-2.63-4.99-5-8.05-5.78c-6.8-1.73-13.98-1.96-20.83-3.54c-13.99-3.22-20.29-13.04-18.13-27.46c1.04-6.94,3.29-13.14,10.55-16.13
		c-8.24,8.36-10.26,18.09-7.02,29.15c1.9,6.48,5.84,10.9,12.56,12.18c7.62,1.46,15.31,2.48,22.95,3.82
		c5.42,0.95,9.13,3.75,11.15,9.24c1.89,5.15,14.63,8.84,18.97,5.71c1.18-0.85,1.76-3.03,1.95-4.67c0.44-3.75,2.35-6.02,6.03-6.12
		c7.57-0.21,15.16-0.33,22.72,0.02c3.56,0.17,6.32,2.33,6.58,6.4c0.22,3.53,2.06,5.14,5.52,4.79c12.88-1.31,19.96,5.29,24.25,16.75
		c1.16,3.08,4.31,6.33,7.34,7.6c5.91,2.48,12.39,3.62,18.62,5.33c1.67,0.46,3.34,0.95,5.01,1.42c-0.17,0.59-0.34,1.19-0.51,1.78
		c-9.06-2.7-18.25-5.07-27.11-8.34c-2.31-0.85-4.3-4.25-5.22-6.9c-2.59-7.46-6.86-11.82-15.29-10.53c1.98-0.35,3.97-0.7,5.95-1.05
		C183.9,236.27,184.01,235.43,184.12,234.6z"/>
	<path class="st0" d="M422.37,265.39c3.44-1.17,6.82-2.99,10.33-3.26c2.19-0.17,5.63,1.42,6.64,3.25c2.44,4.43,5.48,5.48,9.99,4.18
		c0.71-0.2,1.63,0.33,2.45,0.52c-0.02,0.53-0.03,1.06-0.05,1.58c-15.49,0-30.97,0-46.46,0c3.96,0.06,6.43-1.34,8.19-5.66
		c1.41-3.47,5.79-2.99,9.01-0.56c-4.08-0.85-7.08,0.3-9.1,5.38c8.77,0,16.95,0,25.12,0c-0.87-3.49-0.79-8.39-6.36-7.28
		c-3.92,0.78-7.56,2.95-11.93,4.75C421.18,266.99,421.77,266.19,422.37,265.39z"/>
	<path class="st0" d="M378.68,108.11c-1.86-6.05-2.85-6.25-6.6-3.23c-4.36,3.51-5.42,7.98-4.55,13.22c0.41,2.48,0.72,4.97,1.1,7.6
		c4.37,1.76,6.82,0.79,7.07-4.5c0.15-3.1,1.07-6.17,2.58-9.15c-0.31,4.19-0.13,8.51-1.17,12.52c-0.4,1.55-3.56,3.38-5.43,3.34
		c-2.83-0.06-7.09-0.01-7.04-4.53c0.06-5.63,0.33-11.34,1.41-16.84c0.93-4.72,5.14-5.03,9.29-4.83
		C378.79,101.87,379.38,103.66,378.68,108.11z"/>
	<path class="st0" d="M171.79,174.77c7.26,9.9,16.72,17.34,26.51,23.83c-3.51-0.5-7.34-1.43-11.18-1.5
		c-4.18-0.08-8.37,0.62-12.61,0.54c4.22-0.87,8.45-1.75,12.82-2.65c-0.05-5.64-3.46-6.72-7.71-6.43c-3.65,0.25-7.27,0.86-11.02,0.74
		c3.05-1.05,6.11-2.09,9.36-3.21c-1.87-6.23-6.97-2.67-10.77-4.38c2.08-0.66,3.65-1.15,5.46-1.72c-0.52-1.81-0.95-3.29-1.37-4.77
		C171.46,175.07,171.63,174.92,171.79,174.77z"/>
	<path class="st0" d="M108.38,264.33c-9.14-1.28-13.99-12.38-21.54-8.14c-4.34-3.83-7.17-6.52-10.19-8.96
		c-4.68-3.78-9.49-7.39-13.91-11.49C77.65,245.09,92.58,254.43,108.38,264.33z"/>
	<path class="st0" d="M69.16,289.5c3.15,0.89,6.32,2.52,8.42-1.99c0.45-0.96,2.77-1.1,4.26-1.51c1.93-0.54,3.89-0.97,5.89-2.65
		c-2.65-1.06-5.3-2.12-7.87-3.15c2.38-1.24,4.51-2.35,6.64-3.45c-0.12-0.46-0.24-0.92-0.36-1.37c-2.32,0-4.64,0.1-6.95-0.03
		c-2.49-0.13-4.97-0.46-7.45-0.71c3.49-0.36,6.98-0.97,10.48-0.98c1.91-0.01,3.82,1,5.73,1.55c-0.62,1.64-1.25,3.27-2,5.23
		c1.54,1.18,3.4,2.6,5.75,4.41c-1.61,1.06-2.55,2.21-3.52,2.25c-4.71,0.16-9.48-0.38-12.54,4.67
		C75.38,292.17,71.4,290.31,69.16,289.5z"/>
	<path class="st0" d="M196.04,118.94c-0.4-1.23-0.59-2.58-1.24-3.65c-0.75-1.22-1.92-3.04-2.92-3.04c-1.49-0.01-3.53,0.95-4.4,2.17
		c-4.28,5.94,0.13,16.98,7.19,18.5c-8.15,2.18-8.81,1.8-9.85-6.34c-0.34-2.62-0.52-5.28-0.52-7.91c0.01-5.26,2.7-8.76,6.76-8.31
		C195.95,110.88,196.81,114.59,196.04,118.94z"/>
	<path class="st0" d="M104.45,132.68c-2.23,0.95-4.46,1.9-7.22,3.09c1.55,5.76-0.89,12.95,7.37,15.9c-5.72,1.75-6.86,1.41-8.24-3.55
		c-0.93-3.33-1.52-6.9-1.43-10.34C95.07,132.35,99.16,130.36,104.45,132.68z"/>
	<path class="st0" d="M310.57,123.27c5.2,1.2,7.36,4.48,7.06,9.2c-0.34,5.26-0.48,10.61-1.68,15.7c-0.64,2.71-3.3,4.95-5.84,6.88
		c4.85-4.39,4.75-10.26,4.48-15.87C314.33,133.75,317.68,127.24,310.57,123.27z"/>
	<path class="st0" d="M71.99,274.75c-3.5-0.28-6.99-0.56-10.49-0.84c-0.18,0.53-0.37,1.06-0.55,1.59c1.35,1.06,2.71,2.11,4.49,3.51
		c-1.79,0.7-3.66,1.34-5.45,2.15c-1.8,0.82-3.52,1.81-5.03,3.8c3.72,0.47,7.44,0.94,11.17,1.42c-6.22,0.49-12.45,0.98-18.62,1.46
		c4.19-3.04,8.51-6.18,12.9-9.36c-2.09-4.72-0.85-6.54,4.85-5.94C67.54,272.79,69.74,273.99,71.99,274.75z"/>
	<path class="st0" d="M260.13,172.8c-0.9-3.5-1.45-5.63-1.99-7.75c-6.57,1.49-6.87,5.65-1.27,15.48c-3.57,1.2-5.87,0.75-5.76-3.65
		c0.08-2.98-0.07-5.99,0.34-8.93c0.41-3,2.05-5.97,5.46-4.68c1.74,0.66,2.62,3.78,3.69,5.89
		C260.88,169.72,260.43,170.66,260.13,172.8z"/>
	<path class="st0" d="M303.98,146.96c-7.51,1.3-8.5,0.49-7.76-6.71c0.47-4.6-0.1-9.61,5.35-12.19c3.69-1.75,6.24-1.22,8.45,3.08
		c-2.3-1.02-4.19-2.62-5.63-2.29c-1.73,0.4-3.67,2.15-4.49,3.82C296.59,139.36,298.25,144.62,303.98,146.96z"/>
	<path class="st0" d="M232.38,167.37c0.45-1.86,0.9-3.73,1.34-5.59c0.33,3.22,2.4,7.26-3.21,7.87c-3.25,0.36-5.2-0.71-5.22-4.14
		c-0.02-2.8-0.11-5.64,0.33-8.38c0.67-4.16,3.15-5.48,6.32-4.12c-1.73,2.54-4.52,4.9-4.74,7.47c-0.2,2.39,2.34,5.01,3.67,7.53
		C231.37,167.79,231.87,167.58,232.38,167.37z"/>
	<path class="st0" d="M130.26,273.47c-3.51-1.41-6.72-2.69-9.92-3.97c0.02-0.3,0.04-0.61,0.05-0.91c4.93,0.27,9.85,0.53,14.78,0.8
		c-0.04,0.58-0.08,1.16-0.13,1.74c-1.77-0.26-3.53-0.52-5.87-0.86C129.62,271.59,129.92,272.46,130.26,273.47z"/>
	<path class="st0" d="M417.55,234.2c-2.62,4.86-4.72,8.75-7.17,13.28c-1.59,0.23-4.1,0.58-6.24,0.88
		C408.39,243.88,412.59,239.44,417.55,234.2z"/>
	<path class="st0" d="M76.95,220.57c7.83,2.86,17.98-1.64,23.67,7.44C94.33,220.23,84.17,224.95,76.95,220.57z"/>
	<path class="st0" d="M331.07,244.05c-1.67,6.16-3.66,13.55-5.41,20.03C323.33,256.84,326.01,247.63,331.07,244.05z"/>
	<path class="st0" d="M376.62,28.55c1.25-3.65,1.54-9.49,3.95-10.57c6.52-2.92,14.15-4.17,20.59,0.86c3.56,2.78,2.53,6.87,1.53,9.71
		C394.16,28.55,386.21,28.55,376.62,28.55z"/>
	<path class="st0" d="M187.7,44.11c0.39-2.87-0.26-8.41,1.52-9.34c5.12-2.69,11.7-5.33,16.95-1.54c2.76,1.99,3.11,7.34,4.43,10.88
		C202.62,44.11,195.87,44.11,187.7,44.11z"/>
	<path class="st0" d="M111.65,61.58c-7.93,1.03-14.1,1.84-21.26,2.77c-0.17-2.82-1.3-9.49-0.49-9.73
		c5.35-1.61,11.26-2.82,16.69-2.04C108.74,52.89,110.1,58.63,111.65,61.58z"/>
	<path class="st0" d="M401.82,34.12c1.14-2.22,2.2-4.01,2.99-5.9c0.7-1.68,0.84-4.84,1.67-4.99c3.37-0.63,7-0.9,10.35-0.28
		c3.98,0.73,4.6,4.37,2.59,9.94C413.53,33.3,407.89,33.7,401.82,34.12z"/>
	<path class="st0" d="M223.78,43.46c-4.76,0.64-8.32,1.12-12.97,1.75c0.34-3.36-0.38-7.48,1.35-9.49c1.16-1.35,6.21-0.5,8.72,0.85
		C222.55,37.47,222.82,40.98,223.78,43.46z"/>
	<path class="st0" d="M112.3,55.24c8.76-3.1,11.54-1.71,11.52,5.76C114.51,64.35,112.71,63.45,112.3,55.24z"/>
	<path class="st0" d="M435.35,30.12c-4.68,1.81-9.36,3.61-14.03,5.42C421.23,28.9,427.97,26.28,435.35,30.12z"/>
	<path class="st0" d="M224.98,44.29c0-1.96,0-3.33,0-5.33c2.92,0.18,5.68,0.35,8.44,0.51c0.04,0.33,0.07,0.66,0.11,0.99
		C230.91,41.63,228.31,42.8,224.98,44.29z"/>
	<path class="st0" d="M422.37,265.39c-0.59,0.8-1.19,1.6-2.16,2.91c4.37-1.8,8.01-3.97,11.93-4.75c5.57-1.11,5.48,3.8,6.36,7.28
		c-8.18,0-16.35,0-25.12,0c2.02-5.08,5.03-6.22,9.1-5.38C422.48,265.46,422.37,265.39,422.37,265.39z"/>
	<path class="st0" d="M310.02,90.68c0.73-2.77,0.8-5.89,2.35-7.84c0.84-1.05,6.09-0.32,6.12-0.04c0.4,3.73,0.67,7.61-0.07,11.25
		c-0.21,1.03-3.79,1.37-5.83,2.02c-0.12-0.54-0.25-1.07-0.37-1.61c1.61-0.13,3.23-0.26,6.13-0.49c-0.63-3.33-1.21-6.38-1.78-9.42
		C314.66,86.34,312.75,88.12,310.02,90.68z"/>
	<path class="st0" d="M283.67,85.9c-1.66,2.02-2.71,3.28-3.76,4.55c-0.42-0.05-0.85-0.1-1.27-0.15c0.26-1.74-0.04-4,0.95-5.05
		c0.88-0.94,4.54-0.99,4.65-0.67c1,3.05,2.07,6.3,1.88,9.41c-0.07,1.19-3.36,2.18-5.7,2.65C286.59,95,285.06,91.05,283.67,85.9z"/>
	<path class="st0" d="M313.16,77.44c-7.81,0-15.63,0-24.32,0c8.46-2.6,16.46-0.58,24.24-1.55
		C313.11,76.41,313.13,76.93,313.16,77.44z"/>
</g>
</svg>
